<svg xmlns="http://www.w3.org/2000/svg" xmlns:xlink="http://www.w3.org/1999/xlink" width="500" zoomAndPan="magnify" viewBox="0 0 375 374.999991" height="500" preserveAspectRatio="xMidYMid meet" version="1.0"><path fill="#ffc300" d="M 289.78125 187.6875 C 289.78125 157.15625 275.082031 127.390625 251.367188 108.269531 C 185.796875 55.40625 85.140625 103.597656 85.140625 187.6875 C 85.140625 218.203125 99.398438 248.089844 123.144531 267.28125 C 187.589844 319.355469 289.78125 270.273438 289.78125 187.6875 " fill-opacity="1" fill-rule="nonzero"/><path fill="#ffc300" d="M 18.785156 125.675781 L 66.226562 143.070312 C 70.082031 144.480469 74.207031 142.546875 75.84375 138.796875 C 76.71875 136.796875 77.648438 134.808594 78.636719 132.851562 C 80.472656 129.1875 79.324219 124.777344 75.777344 122.726562 L 32.070312 97.355469 C 28.339844 95.1875 23.445312 96.484375 21.433594 100.300781 C 18.8125 105.289062 16.414062 110.40625 14.253906 115.617188 C 12.59375 119.605469 14.730469 124.191406 18.785156 125.675781 " fill-opacity="1" fill-rule="nonzero"/><path fill="#ffc300" d="M 66.496094 201.109375 C 66.257812 198.988281 66.078125 196.859375 65.949219 194.71875 C 65.710938 190.652344 62.546875 187.425781 58.476562 187.378906 L 32.859375 187.125 L 7.785156 187.378906 C 3.496094 187.421875 -0.0273438 190.976562 0.140625 195.253906 C 0.375 200.773438 0.839844 206.285156 1.546875 211.746094 C 2.101562 216.03125 6.234375 218.933594 10.488281 218.195312 L 60.292969 209.609375 C 64.332031 208.917969 66.941406 205.183594 66.496094 201.109375 " fill-opacity="1" fill-rule="nonzero"/><path fill="#ffc300" d="M 138.640625 299 C 136.664062 298.136719 134.707031 297.21875 132.765625 296.238281 C 129.101562 294.398438 124.691406 295.53125 122.628906 299.070312 L 97.199219 342.738281 C 95.027344 346.472656 96.304688 351.363281 100.128906 353.382812 C 105.152344 356.027344 110.285156 358.441406 115.496094 360.601562 C 119.488281 362.257812 124.0625 360.121094 125.550781 356.066406 L 142.910156 308.609375 C 144.316406 304.757812 142.398438 300.644531 138.640625 299 " fill-opacity="1" fill-rule="nonzero"/><path fill="#ffc300" d="M 200.558594 308.386719 C 198.410156 308.644531 196.257812 308.847656 194.089844 308.988281 C 189.996094 309.261719 186.769531 312.480469 186.792969 316.574219 L 187.039062 367.109375 C 187.058594 371.429688 190.644531 374.992188 194.960938 374.792969 C 200.628906 374.527344 206.28125 374 211.871094 373.21875 C 216.148438 372.621094 219.011719 368.453125 218.230469 364.203125 L 209.109375 314.5 C 208.371094 310.472656 204.628906 307.898438 200.558594 308.386719 " fill-opacity="1" fill-rule="nonzero"/><path fill="#ffc300" d="M 85.550781 254.042969 C 83.355469 250.6875 78.828125 249.761719 75.351562 251.765625 L 31.691406 276.886719 C 27.949219 279.042969 26.628906 283.925781 28.9375 287.574219 C 31.945312 292.320312 35.179688 296.957031 38.609375 301.433594 C 41.238281 304.855469 46.273438 305.300781 49.589844 302.53125 L 88.214844 270.265625 C 91.3125 267.683594 92.003906 263.101562 89.609375 259.863281 C 88.195312 257.960938 86.847656 256.015625 85.550781 254.042969 " fill-opacity="1" fill-rule="nonzero"/><path fill="#ffc300" d="M 104.523438 88.292969 C 107.113281 91.382812 111.699219 92.078125 114.9375 89.671875 C 116.832031 88.261719 118.777344 86.90625 120.75 85.609375 C 124.105469 83.40625 125.023438 78.882812 123.019531 75.40625 L 97.855469 31.769531 C 95.699219 28.027344 90.816406 26.707031 87.179688 29.015625 C 82.425781 32.039062 77.789062 35.273438 73.3125 38.714844 C 69.890625 41.339844 69.453125 46.382812 72.230469 49.691406 L 104.523438 88.292969 " fill-opacity="1" fill-rule="nonzero"/><path fill="#ffc300" d="M 289.222656 120.617188 C 291.4375 123.976562 295.976562 124.894531 299.453125 122.875 L 343.035156 97.671875 C 346.773438 95.503906 348.085938 90.625 345.773438 86.976562 C 342.75 82.226562 339.503906 77.597656 336.0625 73.128906 C 333.429688 69.707031 328.386719 69.277344 325.085938 72.054688 L 286.519531 104.429688 C 283.4375 107.011719 282.75 111.585938 285.148438 114.808594 C 286.5625 116.710938 287.917969 118.640625 289.222656 120.617188 " fill-opacity="1" fill-rule="nonzero"/><path fill="#ffc300" d="M 270.167969 286.753906 C 267.601562 283.675781 263.027344 282.972656 259.792969 285.359375 C 257.890625 286.769531 255.953125 288.113281 253.96875 289.414062 C 250.59375 291.617188 249.667969 296.164062 251.675781 299.65625 L 276.742188 343.308594 C 278.894531 347.050781 283.765625 348.378906 287.421875 346.070312 C 292.1875 343.070312 296.824219 339.84375 301.289062 336.425781 C 304.726562 333.800781 305.167969 328.769531 302.410156 325.449219 L 270.167969 286.753906 " fill-opacity="1" fill-rule="nonzero"/><path fill="#ffc300" d="M 356.007812 249.613281 L 308.605469 232.109375 C 304.757812 230.683594 300.632812 232.613281 298.980469 236.359375 C 298.101562 238.355469 297.171875 240.335938 296.179688 242.289062 C 294.332031 245.949219 295.472656 250.359375 299.011719 252.429688 L 342.65625 277.886719 C 346.386719 280.066406 351.277344 278.792969 353.296875 274.972656 C 355.929688 269.996094 358.34375 264.882812 360.523438 259.683594 C 362.183594 255.699219 360.058594 251.113281 356.007812 249.613281 " fill-opacity="1" fill-rule="nonzero"/><path fill="#ffc300" d="M 373.328125 162.742188 C 372.757812 158.464844 368.621094 155.570312 364.359375 156.316406 L 314.582031 165.015625 C 310.542969 165.71875 307.945312 169.453125 308.40625 173.53125 C 308.65625 175.765625 308.847656 178.011719 308.976562 180.265625 C 309.214844 184.304688 312.335938 187.523438 316.375 187.601562 L 342.066406 188.125 L 367.21875 187.613281 C 371.476562 187.527344 374.960938 183.984375 374.78125 179.734375 C 374.550781 174.042969 374.0625 168.367188 373.328125 162.742188 " fill-opacity="1" fill-rule="nonzero"/><path fill="#ffc300" d="M 277.398438 31.96875 C 279.566406 28.230469 278.273438 23.335938 274.449219 21.335938 C 269.4375 18.707031 264.296875 16.296875 259.078125 14.144531 C 255.085938 12.492188 250.5 14.640625 249.023438 18.699219 L 231.738281 66.199219 C 230.339844 70.042969 232.273438 74.15625 236.03125 75.800781 C 238.023438 76.65625 239.980469 77.574219 241.917969 78.546875 C 245.585938 80.382812 249.992188 79.242188 252.050781 75.6875 L 277.398438 31.96875 " fill-opacity="1" fill-rule="nonzero"/><path fill="#ffc300" d="M 179.972656 66.140625 C 179.972656 66.140625 187.628906 66 187.617188 57.367188 L 187.480469 7.832031 C 187.472656 3.519531 183.90625 -0.0429688 179.601562 0.140625 C 174.039062 0.371094 168.476562 0.84375 162.972656 1.5625 C 158.6875 2.121094 155.792969 6.257812 156.523438 10.515625 L 165.171875 60.296875 C 165.867188 64.335938 169.601562 66.941406 173.671875 66.484375 L 179.972656 66.140625 " fill-opacity="1" fill-rule="nonzero"/></svg>