<svg xmlns="http://www.w3.org/2000/svg" xmlns:xlink="http://www.w3.org/1999/xlink" width="500" zoomAndPan="magnify" viewBox="0 0 375 374.999991" height="500" preserveAspectRatio="xMidYMid meet" version="1.0"><defs><clipPath id="4dc623b0c9"><path d="M 238 25.78125 L 256 25.78125 L 256 77 L 238 77 Z M 238 25.78125 " clip-rule="nonzero"/></clipPath></defs><path fill="#f5c12e" d="M 246.925781 85.171875 C 244.550781 85.171875 242.179688 85.269531 239.8125 85.46875 C 237.445312 85.667969 235.09375 85.964844 232.75 86.359375 C 230.410156 86.757812 228.089844 87.25 225.789062 87.839844 C 223.488281 88.429688 221.21875 89.117188 218.976562 89.898438 C 216.734375 90.679688 214.527344 91.550781 212.359375 92.519531 C 210.191406 93.484375 208.066406 94.539062 205.984375 95.683594 C 203.902344 96.828125 201.875 98.058594 199.898438 99.371094 C 197.921875 100.6875 196.003906 102.082031 194.140625 103.558594 C 192.28125 105.03125 190.488281 106.582031 188.757812 108.207031 C 187.027344 109.835938 185.367188 111.53125 183.78125 113.296875 C 182.195312 115.058594 180.683594 116.886719 179.25 118.78125 C 177.816406 120.671875 176.464844 122.621094 175.191406 124.625 C 173.921875 126.628906 172.738281 128.683594 171.640625 130.789062 C 170.542969 132.894531 169.535156 135.039062 168.617188 137.230469 C 167.699219 139.417969 166.875 141.640625 166.144531 143.898438 C 165.414062 146.160156 164.777344 148.441406 164.238281 150.753906 C 164.128906 151.21875 164.054688 151.6875 164.023438 152.164062 C 163.992188 152.640625 164 153.117188 164.050781 153.59375 C 164.097656 154.070312 164.1875 154.535156 164.3125 154.996094 C 164.441406 155.457031 164.605469 155.902344 164.808594 156.335938 C 165.011719 156.769531 165.25 157.179688 165.523438 157.574219 C 165.796875 157.964844 166.097656 158.332031 166.433594 158.671875 C 166.769531 159.011719 167.128906 159.324219 167.515625 159.605469 C 167.902344 159.882812 168.308594 160.128906 168.738281 160.339844 L 302.527344 225.753906 C 303.707031 226.324219 304.953125 226.609375 306.261719 226.601562 C 307.546875 226.609375 308.769531 226.335938 309.929688 225.785156 C 311.089844 225.234375 312.074219 224.460938 312.886719 223.464844 C 314.140625 221.917969 315.339844 220.328125 316.484375 218.699219 C 317.628906 217.066406 318.710938 215.398438 319.738281 213.6875 C 320.765625 211.980469 321.726562 210.238281 322.632812 208.464844 C 323.535156 206.6875 324.375 204.882812 325.152344 203.050781 C 325.925781 201.214844 326.636719 199.355469 327.28125 197.472656 C 327.925781 195.585938 328.503906 193.679688 329.015625 191.757812 C 329.527344 189.832031 329.96875 187.890625 330.34375 185.933594 C 330.714844 183.976562 331.019531 182.011719 331.257812 180.03125 C 331.492188 178.054688 331.65625 176.070312 331.753906 174.082031 C 331.847656 172.09375 331.875 170.101562 331.828125 168.109375 C 331.785156 166.121094 331.667969 164.132812 331.484375 162.148438 C 331.300781 160.164062 331.046875 158.191406 330.722656 156.226562 C 330.398438 154.261719 330.003906 152.308594 329.542969 150.371094 C 329.082031 148.433594 328.554688 146.515625 327.957031 144.613281 C 327.359375 142.714844 326.699219 140.835938 325.96875 138.984375 C 325.238281 137.128906 324.445312 135.304688 323.589844 133.503906 C 322.730469 131.707031 321.8125 129.941406 320.828125 128.210938 C 319.847656 126.476562 318.804688 124.78125 317.703125 123.121094 C 316.601562 121.460938 315.445312 119.839844 314.230469 118.261719 C 313.011719 116.683594 311.742188 115.148438 310.421875 113.660156 C 309.097656 112.171875 307.722656 110.730469 306.296875 109.339844 C 304.871094 107.949219 303.398438 106.605469 301.878906 105.320312 C 300.359375 104.03125 298.796875 102.796875 297.191406 101.617188 C 295.582031 100.4375 293.9375 99.320312 292.25 98.257812 C 290.566406 97.191406 288.84375 96.191406 287.089844 95.25 C 285.332031 94.308594 283.546875 93.429688 281.726562 92.613281 C 279.910156 91.796875 278.066406 91.046875 276.195312 90.359375 C 274.324219 89.675781 272.429688 89.054688 270.515625 88.503906 C 268.601562 87.949219 266.667969 87.464844 264.722656 87.050781 C 262.773438 86.632812 260.8125 86.285156 258.835938 86.003906 C 256.863281 85.726562 254.882812 85.519531 252.894531 85.378906 C 250.90625 85.238281 248.917969 85.171875 246.925781 85.171875 Z M 246.925781 85.171875 " fill-opacity="1" fill-rule="nonzero"/><path fill="#bee1f4" d="M 353.804688 248.832031 C 351.042969 246.410156 348.097656 244.242188 344.964844 242.328125 C 341.832031 240.414062 338.558594 238.78125 335.144531 237.425781 C 331.730469 236.074219 328.226562 235.027344 324.632812 234.277344 C 321.035156 233.527344 317.402344 233.089844 313.734375 232.964844 C 314.625 228.046875 314.964844 223.085938 314.75 218.089844 C 314.535156 213.09375 313.769531 208.183594 312.460938 203.355469 C 311.683594 200.476562 310.722656 197.65625 309.574219 194.902344 C 308.429688 192.148438 307.105469 189.480469 305.605469 186.898438 C 304.105469 184.320312 302.441406 181.847656 300.617188 179.484375 C 298.792969 177.125 296.820312 174.894531 294.699219 172.792969 C 292.578125 170.691406 290.328125 168.738281 287.953125 166.933594 C 285.574219 165.128906 283.089844 163.488281 280.492188 162.011719 C 277.898438 160.535156 275.21875 159.234375 272.453125 158.109375 C 269.6875 156.984375 266.859375 156.046875 263.96875 155.296875 C 261.078125 154.546875 258.152344 153.988281 255.191406 153.625 C 252.226562 153.257812 249.25 153.089844 246.265625 153.117188 C 243.28125 153.144531 240.308594 153.367188 237.351562 153.785156 C 234.398438 154.203125 231.480469 154.8125 228.605469 155.617188 C 225.730469 156.417969 222.917969 157.40625 220.171875 158.582031 C 217.429688 159.753906 214.773438 161.101562 212.203125 162.625 C 209.636719 164.148438 207.179688 165.835938 204.835938 167.683594 C 202.492188 169.53125 200.277344 171.523438 198.195312 173.660156 C 197.332031 171.664062 196.382812 169.710938 195.351562 167.792969 C 194.320312 165.878906 193.210938 164.011719 192.019531 162.191406 C 190.828125 160.371094 189.5625 158.605469 188.21875 156.894531 C 186.878906 155.179688 185.464844 153.527344 183.980469 151.9375 C 182.496094 150.34375 180.949219 148.820312 179.335938 147.359375 C 177.722656 145.902344 176.046875 144.515625 174.316406 143.199219 C 172.582031 141.882812 170.796875 140.640625 168.960938 139.476562 C 167.121094 138.3125 165.238281 137.230469 163.304688 136.226562 C 161.375 135.222656 159.402344 134.304688 157.394531 133.472656 C 155.386719 132.636719 153.34375 131.890625 151.269531 131.226562 C 149.195312 130.566406 147.097656 129.996094 144.976562 129.515625 C 142.851562 129.035156 140.714844 128.644531 138.558594 128.347656 C 136.402344 128.046875 134.238281 127.84375 132.066406 127.730469 C 129.890625 127.617188 127.71875 127.59375 125.542969 127.667969 C 123.367188 127.738281 121.199219 127.902344 119.039062 128.160156 C 116.878906 128.417969 114.730469 128.765625 112.601562 129.207031 C 110.46875 129.648438 108.359375 130.179688 106.273438 130.800781 C 104.1875 131.421875 102.132812 132.128906 100.109375 132.925781 C 98.082031 133.722656 96.097656 134.601562 94.144531 135.566406 C 92.195312 136.535156 90.289062 137.582031 88.429688 138.710938 C 86.570312 139.839844 84.761719 141.042969 83.003906 142.328125 C 81.246094 143.609375 79.546875 144.964844 77.90625 146.394531 C 76.265625 147.820312 74.6875 149.316406 73.175781 150.878906 C 71.660156 152.445312 70.214844 154.066406 68.84375 155.753906 C 67.46875 157.441406 66.167969 159.183594 64.941406 160.980469 C 63.714844 162.777344 62.570312 164.625 61.5 166.519531 C 60.433594 168.414062 59.449219 170.351562 58.546875 172.332031 C 57.644531 174.308594 56.828125 176.324219 56.097656 178.371094 C 55.367188 180.421875 54.726562 182.5 54.175781 184.601562 C 53.621094 186.707031 53.160156 188.828125 52.789062 190.972656 C 52.417969 193.117188 52.140625 195.269531 51.953125 197.4375 C 51.769531 199.605469 51.675781 201.777344 51.671875 203.949219 C 51.628906 204.769531 51.628906 205.589844 51.671875 206.410156 C 49.867188 206.902344 48.085938 207.46875 46.324219 208.101562 C 44.5625 208.738281 42.832031 209.445312 41.128906 210.222656 C 39.429688 211 37.761719 211.847656 36.125 212.757812 C 34.492188 213.671875 32.898438 214.648438 31.34375 215.691406 C 29.789062 216.734375 28.28125 217.835938 26.816406 219 C 25.351562 220.164062 23.9375 221.386719 22.570312 222.667969 C 21.203125 223.945312 19.894531 225.28125 18.636719 226.664062 C 17.378906 228.050781 16.179688 229.488281 15.042969 230.96875 C 13.902344 232.453125 12.824219 233.980469 11.804688 235.550781 C 10.789062 237.121094 9.839844 238.730469 8.953125 240.378906 C 8.070312 242.027344 7.253906 243.710938 6.503906 245.425781 C 5.753906 247.136719 5.078125 248.878906 4.472656 250.648438 C 3.863281 252.417969 3.328125 254.210938 2.867188 256.023438 C 2.40625 257.835938 2.019531 259.664062 1.707031 261.507812 C 1.394531 263.355469 1.15625 265.207031 0.996094 267.070312 C 0.835938 268.933594 0.75 270.800781 0.738281 272.671875 C 0.773438 273.929688 0.839844 275.1875 0.9375 276.441406 C 1.035156 277.695312 1.160156 278.945312 1.316406 280.195312 C 1.476562 281.441406 1.664062 282.6875 1.882812 283.925781 C 2.097656 285.164062 2.347656 286.398438 2.625 287.625 C 2.902344 288.851562 3.210938 290.070312 3.546875 291.285156 C 3.882812 292.496094 4.25 293.699219 4.644531 294.894531 C 5.042969 296.089844 5.464844 297.273438 5.917969 298.445312 C 6.371094 299.621094 6.855469 300.78125 7.363281 301.933594 C 7.871094 303.082031 8.410156 304.21875 8.976562 305.34375 C 9.539062 306.46875 10.132812 307.578125 10.75 308.675781 C 11.371094 309.769531 12.015625 310.851562 12.683594 311.914062 C 13.355469 312.976562 14.054688 314.027344 14.777344 315.054688 C 15.496094 316.085938 16.246094 317.097656 17.015625 318.09375 C 17.789062 319.085938 18.582031 320.0625 19.402344 321.019531 C 20.21875 321.972656 21.0625 322.910156 21.925781 323.824219 C 22.789062 324.738281 23.675781 325.632812 24.582031 326.503906 C 25.492188 327.375 26.417969 328.226562 27.367188 329.050781 C 28.316406 329.878906 29.285156 330.679688 30.273438 331.460938 C 31.261719 332.242188 32.265625 332.996094 33.292969 333.726562 C 34.316406 334.457031 35.359375 335.164062 36.417969 335.84375 C 37.476562 336.523438 38.550781 337.179688 39.640625 337.808594 C 40.730469 338.433594 41.835938 339.035156 42.957031 339.609375 C 44.078125 340.183594 45.210938 340.734375 46.355469 341.253906 C 47.503906 341.773438 48.660156 342.261719 49.832031 342.726562 C 51.003906 343.191406 52.183594 343.625 53.375 344.03125 C 54.566406 344.4375 55.765625 344.8125 56.976562 345.160156 C 58.1875 345.507812 59.402344 345.828125 60.628906 346.117188 C 61.855469 346.402344 63.085938 346.664062 64.324219 346.890625 C 65.5625 347.121094 66.804688 347.320312 68.050781 347.488281 C 69.300781 347.65625 70.550781 347.792969 71.804688 347.902344 C 73.058594 348.007812 74.316406 348.085938 75.574219 348.132812 C 76.832031 348.179688 78.089844 348.195312 79.347656 348.183594 L 323.328125 348.183594 C 324.996094 348.183594 326.660156 348.101562 328.320312 347.9375 C 329.980469 347.773438 331.628906 347.53125 333.261719 347.203125 C 334.898438 346.878906 336.515625 346.476562 338.113281 345.992188 C 339.707031 345.507812 341.277344 344.945312 342.820312 344.308594 C 344.359375 343.667969 345.867188 342.957031 347.335938 342.171875 C 348.808594 341.386719 350.238281 340.53125 351.625 339.605469 C 353.011719 338.675781 354.351562 337.683594 355.640625 336.628906 C 356.929688 335.570312 358.164062 334.453125 359.34375 333.273438 C 360.523438 332.09375 361.640625 330.859375 362.699219 329.570312 C 363.757812 328.28125 364.75 326.945312 365.675781 325.558594 C 366.605469 324.171875 367.460938 322.746094 368.246094 321.273438 C 369.035156 319.804688 369.746094 318.296875 370.382812 316.757812 C 371.023438 315.21875 371.585938 313.648438 372.070312 312.054688 C 372.550781 310.457031 372.957031 308.84375 373.28125 307.207031 C 373.609375 305.574219 373.851562 303.925781 374.015625 302.265625 C 374.179688 300.609375 374.261719 298.945312 374.261719 297.277344 C 374.3125 295.019531 374.242188 292.761719 374.054688 290.511719 C 373.863281 288.261719 373.558594 286.027344 373.132812 283.808594 C 372.710938 281.585938 372.167969 279.398438 371.515625 277.234375 C 370.859375 275.074219 370.09375 272.949219 369.210938 270.871094 C 368.332031 268.789062 367.347656 266.757812 366.253906 264.78125 C 365.160156 262.804688 363.96875 260.890625 362.671875 259.035156 C 361.378906 257.183594 359.988281 255.40625 358.507812 253.699219 C 357.023438 251.996094 355.457031 250.371094 353.804688 248.832031 Z M 353.804688 248.832031 " fill-opacity="1" fill-rule="nonzero"/><g clip-path="url(#4dc623b0c9)"><path fill="#f9d67a" d="M 246.925781 25.78125 C 246.367188 25.78125 245.816406 25.835938 245.269531 25.945312 C 244.722656 26.054688 244.191406 26.214844 243.675781 26.425781 C 243.160156 26.640625 242.671875 26.902344 242.207031 27.210938 C 241.746094 27.519531 241.316406 27.871094 240.921875 28.265625 C 240.527344 28.660156 240.175781 29.089844 239.867188 29.550781 C 239.554688 30.015625 239.292969 30.503906 239.082031 31.019531 C 238.867188 31.535156 238.707031 32.0625 238.597656 32.609375 C 238.488281 33.15625 238.433594 33.707031 238.433594 34.265625 L 238.433594 68.203125 C 238.433594 68.757812 238.488281 69.3125 238.597656 69.859375 C 238.707031 70.402344 238.867188 70.933594 239.082031 71.449219 C 239.292969 71.964844 239.554688 72.453125 239.867188 72.917969 C 240.175781 73.378906 240.527344 73.808594 240.921875 74.203125 C 241.316406 74.59375 241.746094 74.949219 242.207031 75.257812 C 242.671875 75.566406 243.160156 75.828125 243.675781 76.039062 C 244.191406 76.253906 244.722656 76.414062 245.269531 76.523438 C 245.816406 76.632812 246.367188 76.6875 246.925781 76.6875 C 247.480469 76.6875 248.035156 76.632812 248.582031 76.523438 C 249.128906 76.414062 249.65625 76.253906 250.171875 76.039062 C 250.6875 75.828125 251.175781 75.566406 251.640625 75.257812 C 252.105469 74.949219 252.53125 74.59375 252.925781 74.203125 C 253.320312 73.808594 253.671875 73.378906 253.984375 72.917969 C 254.292969 72.453125 254.554688 71.964844 254.765625 71.449219 C 254.980469 70.933594 255.140625 70.402344 255.25 69.859375 C 255.359375 69.3125 255.414062 68.757812 255.414062 68.203125 L 255.414062 34.265625 C 255.414062 33.707031 255.359375 33.15625 255.25 32.609375 C 255.140625 32.0625 254.980469 31.535156 254.765625 31.019531 C 254.554688 30.503906 254.292969 30.015625 253.984375 29.550781 C 253.671875 29.089844 253.320312 28.660156 252.925781 28.265625 C 252.53125 27.871094 252.105469 27.519531 251.640625 27.210938 C 251.175781 26.902344 250.6875 26.640625 250.171875 26.425781 C 249.65625 26.214844 249.128906 26.054688 248.582031 25.945312 C 248.035156 25.835938 247.480469 25.78125 246.925781 25.78125 Z M 246.925781 25.78125 " fill-opacity="1" fill-rule="nonzero"/></g><path fill="#f9d67a" d="M 365.773438 161.527344 L 348.792969 161.527344 C 348.238281 161.527344 347.683594 161.582031 347.136719 161.691406 C 346.589844 161.800781 346.058594 161.960938 345.546875 162.175781 C 345.03125 162.386719 344.542969 162.648438 344.078125 162.960938 C 343.613281 163.269531 343.1875 163.621094 342.792969 164.015625 C 342.398438 164.40625 342.046875 164.835938 341.734375 165.300781 C 341.425781 165.761719 341.164062 166.253906 340.953125 166.765625 C 340.738281 167.28125 340.578125 167.8125 340.46875 168.359375 C 340.359375 168.90625 340.304688 169.457031 340.304688 170.011719 C 340.304688 170.570312 340.359375 171.121094 340.46875 171.667969 C 340.578125 172.214844 340.738281 172.746094 340.953125 173.261719 C 341.164062 173.773438 341.425781 174.265625 341.734375 174.726562 C 342.046875 175.191406 342.398438 175.617188 342.792969 176.011719 C 343.1875 176.40625 343.613281 176.757812 344.078125 177.066406 C 344.542969 177.378906 345.03125 177.640625 345.546875 177.851562 C 346.058594 178.066406 346.589844 178.226562 347.136719 178.335938 C 347.683594 178.445312 348.238281 178.496094 348.792969 178.496094 L 365.773438 178.496094 C 366.328125 178.496094 366.882812 178.445312 367.429688 178.335938 C 367.976562 178.226562 368.507812 178.066406 369.019531 177.851562 C 369.535156 177.640625 370.027344 177.378906 370.488281 177.066406 C 370.953125 176.757812 371.382812 176.40625 371.773438 176.011719 C 372.167969 175.617188 372.519531 175.191406 372.832031 174.726562 C 373.140625 174.265625 373.402344 173.773438 373.617188 173.261719 C 373.828125 172.746094 373.988281 172.214844 374.097656 171.667969 C 374.207031 171.121094 374.261719 170.570312 374.261719 170.011719 C 374.261719 169.457031 374.207031 168.90625 374.097656 168.359375 C 373.988281 167.8125 373.828125 167.28125 373.617188 166.765625 C 373.402344 166.253906 373.140625 165.761719 372.832031 165.300781 C 372.519531 164.835938 372.167969 164.40625 371.773438 164.015625 C 371.382812 163.621094 370.953125 163.269531 370.488281 162.960938 C 370.027344 162.648438 369.535156 162.386719 369.019531 162.175781 C 368.507812 161.960938 367.976562 161.800781 367.429688 161.691406 C 366.882812 161.582031 366.328125 161.527344 365.773438 161.527344 Z M 365.773438 161.527344 " fill-opacity="1" fill-rule="nonzero"/><path fill="#f9d67a" d="M 156.855469 68.203125 C 156.449219 67.925781 156.023438 67.683594 155.574219 67.480469 C 155.128906 67.277344 154.667969 67.113281 154.191406 66.992188 C 153.714844 66.867188 153.234375 66.789062 152.742188 66.746094 C 152.253906 66.707031 151.765625 66.710938 151.273438 66.757812 C 150.785156 66.800781 150.304688 66.890625 149.828125 67.019531 C 149.355469 67.148438 148.894531 67.316406 148.453125 67.523438 C 148.007812 67.734375 147.582031 67.980469 147.179688 68.261719 C 146.78125 68.542969 146.40625 68.859375 146.058594 69.207031 C 145.710938 69.550781 145.394531 69.925781 145.113281 70.328125 C 144.832031 70.730469 144.585938 71.152344 144.375 71.597656 C 144.167969 72.042969 144 72.5 143.871094 72.976562 C 143.738281 73.449219 143.652344 73.929688 143.605469 74.417969 C 143.5625 74.910156 143.558594 75.398438 143.597656 75.886719 C 143.636719 76.375 143.71875 76.859375 143.84375 77.335938 C 143.964844 77.808594 144.128906 78.269531 144.332031 78.71875 C 144.535156 79.164062 144.777344 79.589844 145.054688 79.996094 L 169.078125 104.007812 C 169.472656 104.398438 169.902344 104.746094 170.363281 105.054688 C 170.824219 105.359375 171.3125 105.621094 171.828125 105.832031 C 172.339844 106.042969 172.867188 106.203125 173.414062 106.3125 C 173.957031 106.417969 174.507812 106.472656 175.0625 106.472656 C 175.617188 106.472656 176.167969 106.417969 176.714844 106.3125 C 177.257812 106.203125 177.785156 106.042969 178.300781 105.832031 C 178.8125 105.621094 179.300781 105.359375 179.765625 105.054688 C 180.226562 104.746094 180.65625 104.398438 181.046875 104.007812 C 181.441406 103.613281 181.789062 103.183594 182.097656 102.722656 C 182.402344 102.261719 182.664062 101.773438 182.875 101.261719 C 183.085938 100.746094 183.246094 100.21875 183.355469 99.671875 C 183.460938 99.128906 183.515625 98.578125 183.515625 98.023438 C 183.515625 97.46875 183.460938 96.921875 183.355469 96.375 C 183.246094 95.832031 183.085938 95.300781 182.875 94.789062 C 182.664062 94.277344 182.402344 93.789062 182.097656 93.328125 C 181.789062 92.863281 181.441406 92.4375 181.046875 92.042969 Z M 156.855469 68.203125 " fill-opacity="1" fill-rule="nonzero"/><path fill="#f9d67a" d="M 348.792969 68.203125 C 348.402344 67.8125 347.972656 67.460938 347.511719 67.15625 C 347.046875 66.847656 346.558594 66.589844 346.046875 66.375 C 345.53125 66.164062 345.003906 66.003906 344.460938 65.898438 C 343.914062 65.789062 343.363281 65.734375 342.808594 65.734375 C 342.253906 65.734375 341.703125 65.789062 341.160156 65.898438 C 340.613281 66.003906 340.085938 66.164062 339.574219 66.375 C 339.058594 66.589844 338.570312 66.847656 338.109375 67.15625 C 337.644531 67.460938 337.21875 67.8125 336.824219 68.203125 L 312.800781 92.214844 C 312.410156 92.605469 312.058594 93.035156 311.75 93.496094 C 311.445312 93.957031 311.183594 94.445312 310.972656 94.960938 C 310.761719 95.472656 310.601562 96 310.492188 96.546875 C 310.386719 97.089844 310.332031 97.640625 310.332031 98.195312 C 310.332031 98.75 310.386719 99.300781 310.492188 99.84375 C 310.601562 100.386719 310.761719 100.917969 310.972656 101.429688 C 311.183594 101.941406 311.445312 102.429688 311.75 102.890625 C 312.058594 103.355469 312.410156 103.78125 312.800781 104.175781 C 313.195312 104.566406 313.621094 104.917969 314.085938 105.222656 C 314.546875 105.53125 315.035156 105.789062 315.546875 106 C 316.0625 106.214844 316.589844 106.375 317.136719 106.480469 C 317.679688 106.589844 318.230469 106.644531 318.785156 106.644531 C 319.339844 106.644531 319.890625 106.589844 320.433594 106.480469 C 320.980469 106.375 321.507812 106.214844 322.023438 106 C 322.535156 105.789062 323.023438 105.53125 323.484375 105.222656 C 323.949219 104.917969 324.375 104.566406 324.769531 104.175781 L 348.792969 79.996094 C 349.171875 79.605469 349.511719 79.179688 349.808594 78.722656 C 350.105469 78.265625 350.355469 77.785156 350.5625 77.277344 C 350.765625 76.773438 350.917969 76.253906 351.023438 75.71875 C 351.128906 75.183594 351.179688 74.644531 351.179688 74.097656 C 351.179688 73.554688 351.128906 73.015625 351.023438 72.480469 C 350.917969 71.945312 350.765625 71.425781 350.5625 70.917969 C 350.355469 70.414062 350.105469 69.933594 349.808594 69.476562 C 349.511719 69.019531 349.171875 68.59375 348.792969 68.203125 Z M 348.792969 68.203125 " fill-opacity="1" fill-rule="nonzero"/></svg>