<svg xmlns="http://www.w3.org/2000/svg" xmlns:xlink="http://www.w3.org/1999/xlink" width="500" zoomAndPan="magnify" viewBox="0 0 375 374.999991" height="500" preserveAspectRatio="xMidYMid meet" version="1.0"><defs><clipPath id="f4d3ae63e3"><path d="M 6.5625 3 L 368.8125 3 L 368.8125 366 L 6.5625 366 Z M 6.5625 3 " clip-rule="nonzero"/></clipPath><clipPath id="bf1764ac17"><path d="M 115 250 L 368.8125 250 L 368.8125 300 L 115 300 Z M 115 250 " clip-rule="nonzero"/></clipPath><clipPath id="512e722254"><path d="M 252 16 L 368.8125 16 L 368.8125 172 L 252 172 Z M 252 16 " clip-rule="nonzero"/></clipPath></defs><g clip-path="url(#f4d3ae63e3)"><path fill="#ffffff" d="M 355.511719 219.941406 C 353.613281 219.949219 351.730469 219.773438 349.867188 219.402344 C 348.003906 219.035156 346.195312 218.484375 344.445312 217.75 C 342.691406 217.015625 341.03125 216.113281 339.460938 215.042969 C 337.890625 213.972656 336.445312 212.757812 335.121094 211.398438 C 333.886719 210.265625 332.605469 209.199219 331.273438 208.1875 C 329.941406 207.175781 328.566406 206.230469 327.144531 205.347656 C 325.726562 204.464844 324.265625 203.652344 322.773438 202.902344 C 321.277344 202.15625 319.75 201.480469 318.191406 200.875 C 316.632812 200.269531 315.050781 199.734375 313.445312 199.277344 C 311.835938 198.816406 310.210938 198.433594 308.566406 198.125 C 306.925781 197.816406 305.269531 197.585938 303.605469 197.429688 C 301.941406 197.277344 300.273438 197.199219 298.601562 197.199219 C 296.929688 197.199219 295.261719 197.277344 293.597656 197.429688 C 291.933594 197.585938 290.28125 197.816406 288.636719 198.125 C 286.992188 198.433594 285.367188 198.816406 283.761719 199.277344 C 282.152344 199.734375 280.570312 200.269531 279.011719 200.875 C 277.453125 201.480469 275.925781 202.15625 274.433594 202.902344 C 272.9375 203.652344 271.480469 204.464844 270.058594 205.347656 C 268.640625 206.230469 267.265625 207.175781 265.933594 208.1875 C 264.601562 209.199219 263.316406 210.265625 262.085938 211.398438 L 261.554688 211.808594 C 242.609375 138.050781 150.238281 13.96875 146.144531 8.5 C 145.828125 8.121094 145.496094 7.757812 145.144531 7.414062 C 144.789062 7.070312 144.417969 6.746094 144.03125 6.445312 C 143.640625 6.140625 143.238281 5.863281 142.820312 5.605469 C 142.398438 5.34375 141.964844 5.109375 141.519531 4.902344 C 141.074219 4.691406 140.621094 4.503906 140.152344 4.34375 C 139.6875 4.183594 139.214844 4.050781 138.734375 3.945312 C 138.253906 3.835938 137.765625 3.753906 137.277344 3.699219 C 136.789062 3.644531 136.296875 3.617188 135.804688 3.617188 C 135.3125 3.617188 134.820312 3.644531 134.328125 3.699219 C 133.839844 3.753906 133.355469 3.835938 132.875 3.945312 C 132.394531 4.050781 131.917969 4.183594 131.453125 4.34375 C 130.988281 4.503906 130.53125 4.691406 130.085938 4.902344 C 129.640625 5.109375 129.207031 5.34375 128.789062 5.605469 C 128.367188 5.863281 127.964844 6.140625 127.574219 6.445312 C 127.1875 6.746094 126.816406 7.070312 126.464844 7.414062 C 126.109375 7.757812 125.777344 8.121094 125.464844 8.5 C 113.289062 24.785156 6.5625 169.339844 6.5625 235.964844 C 6.5625 238.875 6.660156 241.78125 6.855469 244.683594 C 7.050781 247.585938 7.34375 250.476562 7.738281 253.359375 C 8.128906 256.242188 8.617188 259.109375 9.199219 261.960938 C 9.785156 264.808594 10.464844 267.636719 11.242188 270.441406 C 12.015625 273.246094 12.886719 276.019531 13.847656 278.765625 C 14.8125 281.507812 15.867188 284.21875 17.011719 286.894531 C 18.160156 289.566406 19.394531 292.199219 20.71875 294.789062 C 22.042969 297.378906 23.449219 299.921875 24.945312 302.417969 C 26.441406 304.914062 28.019531 307.355469 29.679688 309.746094 C 31.339844 312.132812 33.078125 314.464844 34.898438 316.734375 C 36.714844 319.007812 38.609375 321.214844 40.574219 323.355469 C 42.542969 325.5 44.578125 327.574219 46.683594 329.582031 C 48.792969 331.585938 50.964844 333.519531 53.203125 335.378906 C 55.4375 337.238281 57.738281 339.019531 60.09375 340.726562 C 62.453125 342.429688 64.863281 344.050781 67.332031 345.59375 C 69.800781 347.132812 72.316406 348.589844 74.882812 349.960938 C 77.449219 351.332031 80.058594 352.617188 82.710938 353.8125 C 85.363281 355.007812 88.050781 356.113281 90.777344 357.125 C 93.503906 358.136719 96.261719 359.058594 99.050781 359.886719 C 101.839844 360.714844 104.65625 361.445312 107.492188 362.082031 C 110.332031 362.71875 113.1875 363.261719 116.0625 363.707031 C 118.9375 364.148438 121.824219 364.496094 124.722656 364.746094 C 127.621094 364.996094 130.527344 365.148438 133.433594 365.199219 C 136.34375 365.253906 139.25 365.207031 142.15625 365.066406 C 145.0625 364.921875 147.960938 364.679688 150.847656 364.34375 C 153.738281 364.003906 156.613281 363.570312 159.472656 363.035156 C 162.332031 362.503906 165.171875 361.875 167.988281 361.148438 C 170.808594 360.425781 173.597656 359.605469 176.359375 358.695312 C 179.121094 357.78125 181.851562 356.777344 184.542969 355.679688 C 187.238281 354.582031 189.894531 353.394531 192.507812 352.117188 C 195.121094 350.84375 197.6875 349.480469 200.210938 348.027344 C 202.734375 346.578125 205.203125 345.046875 207.621094 343.429688 C 208.328125 342.957031 208.980469 342.421875 209.578125 341.820312 C 210.179688 341.21875 210.714844 340.566406 211.183594 339.859375 C 211.65625 339.152344 212.054688 338.40625 212.378906 337.625 C 212.703125 336.839844 212.945312 336.03125 213.109375 335.199219 C 213.273438 334.367188 213.355469 333.523438 213.355469 332.675781 C 213.355469 331.828125 213.273438 330.988281 213.105469 330.15625 C 212.9375 329.324219 212.691406 328.515625 212.367188 327.730469 C 212.042969 326.945312 211.644531 326.203125 211.171875 325.496094 C 210.699219 324.792969 210.160156 324.140625 209.5625 323.539062 C 208.960938 322.941406 208.308594 322.40625 207.601562 321.933594 C 206.894531 321.464844 206.148438 321.066406 205.363281 320.742188 C 204.582031 320.417969 203.773438 320.175781 202.9375 320.007812 C 202.105469 319.84375 201.265625 319.761719 200.417969 319.765625 C 199.570312 319.765625 198.726562 319.847656 197.894531 320.015625 C 197.0625 320.179688 196.253906 320.425781 195.472656 320.753906 C 194.6875 321.078125 193.945312 321.476562 193.238281 321.949219 C 191.304688 323.242188 189.328125 324.46875 187.308594 325.628906 C 185.292969 326.785156 183.238281 327.875 181.144531 328.898438 C 179.054688 329.917969 176.929688 330.867188 174.773438 331.742188 C 172.621094 332.621094 170.4375 333.425781 168.226562 334.152344 C 166.019531 334.882812 163.785156 335.539062 161.53125 336.117188 C 159.277344 336.695312 157.007812 337.199219 154.71875 337.625 C 152.433594 338.050781 150.132812 338.398438 147.820312 338.667969 C 145.507812 338.9375 143.191406 339.132812 140.867188 339.246094 C 138.542969 339.359375 136.21875 339.394531 133.890625 339.351562 C 131.5625 339.308594 129.242188 339.1875 126.921875 338.988281 C 124.605469 338.789062 122.296875 338.507812 119.996094 338.152344 C 117.695312 337.796875 115.410156 337.363281 113.140625 336.855469 C 110.871094 336.34375 108.621094 335.757812 106.386719 335.097656 C 104.15625 334.433594 101.953125 333.699219 99.769531 332.886719 C 97.589844 332.078125 95.4375 331.191406 93.316406 330.238281 C 91.195312 329.28125 89.109375 328.253906 87.054688 327.15625 C 85.003906 326.058594 82.992188 324.894531 81.015625 323.660156 C 79.042969 322.425781 77.113281 321.128906 75.226562 319.765625 C 73.34375 318.402344 71.503906 316.976562 69.714844 315.488281 C 67.925781 314.003906 66.1875 312.457031 64.503906 310.851562 C 62.816406 309.246094 61.1875 307.585938 59.613281 305.871094 C 58.042969 304.15625 56.527344 302.390625 55.074219 300.574219 C 53.621094 298.757812 52.230469 296.894531 50.902344 294.984375 C 49.574219 293.070312 48.3125 291.117188 47.113281 289.121094 C 45.917969 287.125 44.792969 285.089844 43.734375 283.019531 C 42.675781 280.945312 41.6875 278.839844 40.769531 276.703125 C 39.851562 274.5625 39.007812 272.394531 38.238281 270.199219 C 37.46875 268.003906 36.773438 265.785156 36.152344 263.542969 C 35.53125 261.300781 34.988281 259.039062 34.519531 256.757812 C 34.054688 254.480469 33.664062 252.1875 33.351562 249.878906 C 33.035156 247.574219 32.800781 245.261719 32.644531 242.9375 C 32.488281 240.617188 32.410156 238.292969 32.410156 235.964844 C 32.410156 191.546875 99.511719 88.761719 135.804688 38.226562 C 160.863281 73.328125 223.6875 165.117188 236.78125 219.488281 C 233.882812 218.902344 231.125 217.925781 228.507812 216.554688 C 225.890625 215.183594 223.515625 213.472656 221.386719 211.421875 C 220.15625 210.292969 218.875 209.222656 217.542969 208.210938 C 216.210938 207.203125 214.835938 206.253906 213.417969 205.371094 C 212 204.488281 210.542969 203.675781 209.050781 202.925781 C 207.554688 202.179688 206.027344 201.5 204.472656 200.894531 C 202.914062 200.289062 201.332031 199.757812 199.726562 199.296875 C 198.117188 198.839844 196.492188 198.457031 194.851562 198.148438 C 193.207031 197.839844 191.554688 197.605469 189.890625 197.453125 C 188.226562 197.296875 186.558594 197.21875 184.890625 197.21875 C 183.21875 197.21875 181.550781 197.296875 179.886719 197.453125 C 178.222656 197.605469 176.570312 197.839844 174.925781 198.148438 C 173.285156 198.457031 171.660156 198.839844 170.054688 199.296875 C 168.445312 199.757812 166.863281 200.289062 165.308594 200.894531 C 163.75 201.5 162.222656 202.179688 160.730469 202.925781 C 159.234375 203.675781 157.777344 204.488281 156.359375 205.371094 C 154.941406 206.253906 153.566406 207.203125 152.234375 208.210938 C 150.90625 209.222656 149.625 210.292969 148.390625 211.421875 C 147.070312 212.78125 145.628906 213.992188 144.0625 215.0625 C 142.5 216.128906 140.84375 217.027344 139.097656 217.761719 C 137.351562 218.492188 135.546875 219.042969 133.691406 219.414062 C 131.832031 219.78125 129.957031 219.960938 128.0625 219.953125 C 127.214844 219.953125 126.371094 220.035156 125.539062 220.199219 C 124.707031 220.367188 123.898438 220.613281 123.117188 220.9375 C 122.332031 221.261719 121.585938 221.660156 120.882812 222.128906 C 120.175781 222.601562 119.523438 223.136719 118.921875 223.738281 C 118.324219 224.335938 117.789062 224.992188 117.316406 225.695312 C 116.84375 226.402344 116.445312 227.148438 116.121094 227.929688 C 115.796875 228.714844 115.550781 229.523438 115.386719 230.355469 C 115.21875 231.1875 115.136719 232.027344 115.136719 232.875 C 115.136719 233.726562 115.21875 234.566406 115.386719 235.398438 C 115.550781 236.230469 115.796875 237.039062 116.121094 237.824219 C 116.445312 238.605469 116.84375 239.351562 117.316406 240.058594 C 117.789062 240.761719 118.324219 241.414062 118.921875 242.015625 C 119.523438 242.617188 120.175781 243.152344 120.882812 243.621094 C 121.585938 244.09375 122.332031 244.492188 123.117188 244.816406 C 123.898438 245.140625 124.707031 245.386719 125.539062 245.550781 C 126.371094 245.71875 127.214844 245.800781 128.0625 245.800781 C 131.414062 245.832031 134.742188 245.542969 138.039062 244.9375 C 141.335938 244.332031 144.550781 243.421875 147.671875 242.207031 C 150.796875 240.988281 153.777344 239.484375 156.617188 237.699219 C 159.453125 235.914062 162.097656 233.875 164.546875 231.585938 C 165.207031 230.910156 165.902344 230.269531 166.628906 229.664062 C 167.351562 229.0625 168.105469 228.492188 168.886719 227.964844 C 169.671875 227.433594 170.476562 226.941406 171.308594 226.492188 C 172.136719 226.042969 172.988281 225.636719 173.859375 225.269531 C 174.730469 224.902344 175.617188 224.582031 176.519531 224.304688 C 177.421875 224.027344 178.335938 223.796875 179.261719 223.609375 C 180.191406 223.421875 181.121094 223.285156 182.0625 223.191406 C 183.003906 223.097656 183.945312 223.050781 184.890625 223.050781 C 185.832031 223.050781 186.777344 223.097656 187.714844 223.191406 C 188.65625 223.285156 189.589844 223.421875 190.515625 223.609375 C 191.441406 223.796875 192.355469 224.027344 193.257812 224.304688 C 194.160156 224.582031 195.046875 224.902344 195.917969 225.269531 C 196.789062 225.636719 197.640625 226.042969 198.472656 226.492188 C 199.300781 226.941406 200.109375 227.433594 200.890625 227.960938 C 201.671875 228.492188 202.425781 229.0625 203.152344 229.664062 C 203.875 230.269531 204.570312 230.910156 205.230469 231.585938 C 206.464844 232.714844 207.746094 233.78125 209.078125 234.792969 C 210.410156 235.804688 211.785156 236.75 213.203125 237.632812 C 214.625 238.515625 216.082031 239.328125 217.578125 240.078125 C 219.070312 240.824219 220.597656 241.5 222.15625 242.105469 C 223.714844 242.710938 225.296875 243.246094 226.902344 243.703125 C 228.511719 244.160156 230.136719 244.546875 231.777344 244.855469 C 233.421875 245.160156 235.074219 245.394531 236.738281 245.546875 C 238.402344 245.703125 240.070312 245.78125 241.742188 245.78125 C 243.414062 245.78125 245.082031 245.703125 246.746094 245.546875 C 248.410156 245.394531 250.0625 245.160156 251.707031 244.855469 C 253.347656 244.546875 254.972656 244.160156 256.582031 243.703125 C 258.1875 243.246094 259.769531 242.710938 261.328125 242.105469 C 262.886719 241.5 264.414062 240.824219 265.910156 240.078125 C 267.402344 239.328125 268.859375 238.515625 270.28125 237.632812 C 271.699219 236.75 273.074219 235.804688 274.40625 234.792969 C 275.738281 233.78125 277.019531 232.714844 278.253906 231.585938 C 278.917969 230.910156 279.613281 230.269531 280.339844 229.664062 C 281.066406 229.058594 281.824219 228.488281 282.605469 227.960938 C 283.390625 227.429688 284.199219 226.9375 285.03125 226.488281 C 285.863281 226.039062 286.714844 225.628906 287.589844 225.265625 C 288.460938 224.898438 289.351562 224.578125 290.253906 224.300781 C 291.160156 224.019531 292.074219 223.789062 293.003906 223.601562 C 293.933594 223.417969 294.867188 223.277344 295.808594 223.183594 C 296.75 223.089844 297.695312 223.042969 298.640625 223.042969 C 299.585938 223.042969 300.53125 223.089844 301.472656 223.183594 C 302.414062 223.277344 303.351562 223.417969 304.277344 223.601562 C 305.207031 223.789062 306.121094 224.019531 307.027344 224.300781 C 307.929688 224.578125 308.820312 224.898438 309.695312 225.265625 C 310.566406 225.628906 311.417969 226.039062 312.25 226.488281 C 313.082031 226.9375 313.890625 227.429688 314.675781 227.960938 C 315.460938 228.488281 316.214844 229.058594 316.941406 229.664062 C 317.667969 230.269531 318.363281 230.910156 319.027344 231.585938 C 321.480469 233.871094 324.125 235.90625 326.964844 237.691406 C 329.800781 239.472656 332.78125 240.972656 335.90625 242.1875 C 339.03125 243.40625 342.242188 244.316406 345.539062 244.921875 C 348.835938 245.527344 352.160156 245.816406 355.511719 245.789062 C 356.363281 245.789062 357.203125 245.703125 358.035156 245.539062 C 358.867188 245.375 359.675781 245.128906 360.460938 244.804688 C 361.242188 244.480469 361.988281 244.082031 362.695312 243.609375 C 363.398438 243.136719 364.050781 242.601562 364.652344 242.003906 C 365.253906 241.402344 365.789062 240.75 366.257812 240.042969 C 366.730469 239.339844 367.128906 238.59375 367.453125 237.808594 C 367.777344 237.027344 368.023438 236.21875 368.1875 235.386719 C 368.355469 234.550781 368.4375 233.710938 368.4375 232.863281 C 368.4375 232.015625 368.355469 231.175781 368.1875 230.34375 C 368.023438 229.511719 367.777344 228.703125 367.453125 227.917969 C 367.128906 227.132812 366.730469 226.390625 366.257812 225.683594 C 365.789062 224.976562 365.253906 224.324219 364.652344 223.726562 C 364.050781 223.125 363.398438 222.589844 362.695312 222.117188 C 361.988281 221.644531 361.242188 221.246094 360.460938 220.921875 C 359.675781 220.597656 358.867188 220.351562 358.035156 220.1875 C 357.203125 220.023438 356.363281 219.941406 355.511719 219.941406 Z M 355.511719 219.941406 " fill-opacity="1" fill-rule="nonzero"/></g><g clip-path="url(#bf1764ac17)"><path fill="#ffffff" d="M 355.511719 273.1875 C 353.613281 273.199219 351.730469 273.019531 349.867188 272.652344 C 348.003906 272.28125 346.195312 271.730469 344.445312 270.996094 C 342.691406 270.261719 341.03125 269.359375 339.460938 268.292969 C 337.890625 267.222656 336.445312 266.007812 335.121094 264.644531 C 333.886719 263.515625 332.605469 262.445312 331.273438 261.433594 C 329.941406 260.425781 328.566406 259.476562 327.144531 258.59375 C 325.726562 257.714844 324.265625 256.898438 322.773438 256.152344 C 321.277344 255.402344 319.75 254.726562 318.191406 254.121094 C 316.632812 253.515625 315.050781 252.984375 313.445312 252.523438 C 311.835938 252.066406 310.210938 251.679688 308.566406 251.375 C 306.925781 251.066406 305.269531 250.832031 303.605469 250.679688 C 301.941406 250.523438 300.273438 250.445312 298.601562 250.445312 C 296.929688 250.445312 295.261719 250.523438 293.597656 250.679688 C 291.933594 250.832031 290.28125 251.066406 288.636719 251.375 C 286.992188 251.679688 285.367188 252.066406 283.761719 252.523438 C 282.152344 252.984375 280.570312 253.515625 279.011719 254.121094 C 277.453125 254.726562 275.925781 255.402344 274.433594 256.152344 C 272.9375 256.898438 271.480469 257.714844 270.058594 258.59375 C 268.640625 259.476562 267.265625 260.425781 265.933594 261.433594 C 264.601562 262.445312 263.316406 263.515625 262.085938 264.644531 C 261.421875 265.320312 260.726562 265.957031 260 266.566406 C 259.273438 267.171875 258.519531 267.738281 257.738281 268.269531 C 256.953125 268.800781 256.148438 269.289062 255.316406 269.742188 C 254.484375 270.191406 253.632812 270.601562 252.761719 270.964844 C 251.886719 271.332031 251 271.652344 250.097656 271.929688 C 249.191406 272.207031 248.277344 272.441406 247.347656 272.628906 C 246.421875 272.8125 245.488281 272.953125 244.546875 273.046875 C 243.605469 273.140625 242.664062 273.1875 241.714844 273.1875 C 240.769531 273.1875 239.828125 273.140625 238.886719 273.046875 C 237.945312 272.953125 237.011719 272.8125 236.082031 272.628906 C 235.15625 272.441406 234.242188 272.207031 233.335938 271.929688 C 232.433594 271.652344 231.542969 271.332031 230.671875 270.964844 C 229.800781 270.601562 228.949219 270.191406 228.117188 269.742188 C 227.285156 269.289062 226.476562 268.800781 225.695312 268.269531 C 224.914062 267.738281 224.15625 267.171875 223.433594 266.566406 C 222.707031 265.957031 222.011719 265.320312 221.347656 264.644531 C 220.117188 263.515625 218.835938 262.445312 217.503906 261.433594 C 216.171875 260.421875 214.800781 259.476562 213.378906 258.59375 C 211.960938 257.710938 210.503906 256.894531 209.011719 256.148438 C 207.515625 255.398438 205.988281 254.722656 204.433594 254.117188 C 202.875 253.511719 201.292969 252.980469 199.6875 252.519531 C 198.078125 252.058594 196.453125 251.675781 194.8125 251.367188 C 193.171875 251.058594 191.515625 250.828125 189.851562 250.671875 C 188.1875 250.519531 186.523438 250.441406 184.851562 250.441406 C 183.179688 250.441406 181.511719 250.519531 179.847656 250.671875 C 178.183594 250.828125 176.53125 251.058594 174.886719 251.367188 C 173.246094 251.675781 171.621094 252.058594 170.015625 252.519531 C 168.40625 252.980469 166.824219 253.511719 165.269531 254.117188 C 163.710938 254.722656 162.183594 255.398438 160.691406 256.148438 C 159.195312 256.894531 157.738281 257.710938 156.320312 258.59375 C 154.902344 259.476562 153.527344 260.421875 152.195312 261.433594 C 150.867188 262.445312 149.585938 263.515625 148.351562 264.644531 C 147.03125 266.003906 145.589844 267.214844 144.023438 268.28125 C 142.460938 269.347656 140.804688 270.25 139.058594 270.980469 C 137.3125 271.714844 135.507812 272.265625 133.652344 272.636719 C 131.792969 273.003906 129.917969 273.183594 128.023438 273.175781 C 127.175781 273.175781 126.335938 273.257812 125.5 273.421875 C 124.667969 273.585938 123.863281 273.832031 123.078125 274.15625 C 122.292969 274.480469 121.546875 274.878906 120.84375 275.351562 C 120.136719 275.824219 119.484375 276.359375 118.882812 276.960938 C 118.285156 277.558594 117.75 278.210938 117.277344 278.917969 C 116.804688 279.625 116.40625 280.367188 116.082031 281.152344 C 115.757812 281.9375 115.511719 282.746094 115.347656 283.578125 C 115.183594 284.410156 115.097656 285.25 115.097656 286.097656 C 115.097656 286.945312 115.183594 287.785156 115.347656 288.621094 C 115.511719 289.453125 115.757812 290.257812 116.082031 291.042969 C 116.40625 291.828125 116.804688 292.574219 117.277344 293.277344 C 117.75 293.984375 118.285156 294.636719 118.882812 295.238281 C 119.484375 295.835938 120.136719 296.371094 120.84375 296.84375 C 121.546875 297.316406 122.292969 297.714844 123.078125 298.039062 C 123.863281 298.363281 124.667969 298.609375 125.5 298.773438 C 126.335938 298.9375 127.175781 299.023438 128.023438 299.023438 C 131.375 299.050781 134.703125 298.765625 138 298.160156 C 141.296875 297.554688 144.511719 296.644531 147.632812 295.425781 C 150.757812 294.210938 153.738281 292.707031 156.578125 290.921875 C 159.414062 289.136719 162.058594 287.097656 164.507812 284.804688 C 165.167969 284.132812 165.863281 283.492188 166.589844 282.886719 C 167.3125 282.28125 168.066406 281.714844 168.847656 281.183594 C 169.632812 280.652344 170.4375 280.164062 171.269531 279.714844 C 172.097656 279.265625 172.949219 278.855469 173.820312 278.492188 C 174.691406 278.125 175.578125 277.804688 176.480469 277.527344 C 177.382812 277.25 178.296875 277.019531 179.226562 276.832031 C 180.152344 276.644531 181.082031 276.503906 182.023438 276.410156 C 182.964844 276.316406 183.90625 276.269531 184.851562 276.269531 C 185.796875 276.269531 186.738281 276.316406 187.675781 276.410156 C 188.617188 276.503906 189.550781 276.644531 190.476562 276.832031 C 191.402344 277.019531 192.316406 277.25 193.21875 277.527344 C 194.121094 277.804688 195.007812 278.125 195.878906 278.492188 C 196.75 278.855469 197.601562 279.265625 198.433594 279.714844 C 199.261719 280.164062 200.070312 280.652344 200.851562 281.183594 C 201.632812 281.714844 202.386719 282.28125 203.113281 282.886719 C 203.835938 283.492188 204.53125 284.132812 205.191406 284.804688 C 206.425781 285.933594 207.707031 287.003906 209.039062 288.015625 C 210.371094 289.023438 211.746094 289.972656 213.164062 290.851562 C 214.585938 291.734375 216.042969 292.550781 217.539062 293.296875 C 219.03125 294.046875 220.558594 294.722656 222.117188 295.328125 C 223.675781 295.933594 225.257812 296.464844 226.863281 296.925781 C 228.472656 297.382812 230.097656 297.765625 231.738281 298.074219 C 233.382812 298.382812 235.035156 298.613281 236.699219 298.769531 C 238.363281 298.925781 240.03125 299 241.703125 299 C 243.375 299 245.042969 298.925781 246.707031 298.769531 C 248.371094 298.613281 250.023438 298.382812 251.667969 298.074219 C 253.3125 297.765625 254.9375 297.382812 256.542969 296.925781 C 258.148438 296.464844 259.734375 295.933594 261.289062 295.328125 C 262.847656 294.722656 264.375 294.046875 265.871094 293.296875 C 267.363281 292.550781 268.820312 291.734375 270.242188 290.851562 C 271.660156 289.972656 273.035156 289.023438 274.367188 288.015625 C 275.699219 287.003906 276.980469 285.933594 278.214844 284.804688 C 278.878906 284.132812 279.574219 283.492188 280.300781 282.886719 C 281.027344 282.28125 281.785156 281.710938 282.566406 281.179688 C 283.351562 280.648438 284.160156 280.160156 284.992188 279.710938 C 285.824219 279.257812 286.675781 278.851562 287.550781 278.484375 C 288.421875 278.121094 289.3125 277.796875 290.214844 277.519531 C 291.121094 277.242188 292.039062 277.011719 292.964844 276.824219 C 293.894531 276.636719 294.828125 276.496094 295.769531 276.402344 C 296.710938 276.308594 297.65625 276.261719 298.601562 276.261719 C 299.546875 276.261719 300.492188 276.308594 301.433594 276.402344 C 302.375 276.496094 303.3125 276.636719 304.238281 276.824219 C 305.167969 277.011719 306.082031 277.242188 306.988281 277.519531 C 307.894531 277.796875 308.78125 278.121094 309.65625 278.484375 C 310.527344 278.851562 311.378906 279.257812 312.210938 279.710938 C 313.046875 280.160156 313.851562 280.648438 314.636719 281.179688 C 315.421875 281.710938 316.175781 282.28125 316.902344 282.886719 C 317.628906 283.492188 318.324219 284.132812 318.988281 284.804688 C 321.441406 287.097656 324.089844 289.136719 326.929688 290.921875 C 329.773438 292.710938 332.757812 294.214844 335.882812 295.433594 C 339.011719 296.648438 342.226562 297.5625 345.527344 298.167969 C 348.828125 298.773438 352.15625 299.0625 355.511719 299.035156 C 356.363281 299.035156 357.203125 298.953125 358.035156 298.785156 C 358.867188 298.621094 359.675781 298.375 360.460938 298.050781 C 361.242188 297.726562 361.988281 297.328125 362.695312 296.855469 C 363.398438 296.386719 364.050781 295.851562 364.652344 295.25 C 365.253906 294.648438 365.789062 293.996094 366.257812 293.292969 C 366.730469 292.585938 367.128906 291.839844 367.453125 291.058594 C 367.777344 290.273438 368.023438 289.464844 368.1875 288.632812 C 368.355469 287.800781 368.4375 286.960938 368.4375 286.109375 C 368.4375 285.261719 368.355469 284.421875 368.1875 283.589844 C 368.023438 282.757812 367.777344 281.949219 367.453125 281.164062 C 367.128906 280.382812 366.730469 279.636719 366.257812 278.929688 C 365.789062 278.226562 365.253906 277.570312 364.652344 276.972656 C 364.050781 276.371094 363.398438 275.835938 362.695312 275.363281 C 361.988281 274.894531 361.242188 274.496094 360.460938 274.171875 C 359.675781 273.847656 358.867188 273.601562 358.035156 273.433594 C 357.203125 273.269531 356.363281 273.1875 355.511719 273.1875 Z M 355.511719 273.1875 " fill-opacity="1" fill-rule="nonzero"/></g><g clip-path="url(#512e722254)"><path fill="#ffffff" d="M 310.277344 171.34375 C 312.183594 171.34375 314.082031 171.25 315.980469 171.066406 C 317.875 170.878906 319.757812 170.597656 321.625 170.226562 C 323.492188 169.855469 325.339844 169.394531 327.160156 168.839844 C 328.984375 168.289062 330.777344 167.648438 332.535156 166.917969 C 334.296875 166.1875 336.015625 165.375 337.695312 164.476562 C 339.375 163.578125 341.007812 162.601562 342.589844 161.542969 C 344.175781 160.484375 345.703125 159.351562 347.175781 158.144531 C 348.648438 156.933594 350.054688 155.65625 351.402344 154.3125 C 352.75 152.964844 354.027344 151.554688 355.234375 150.082031 C 356.445312 148.609375 357.578125 147.082031 358.636719 145.496094 C 359.695312 143.914062 360.671875 142.28125 361.570312 140.601562 C 362.46875 138.921875 363.28125 137.203125 364.011719 135.441406 C 364.738281 133.683594 365.378906 131.890625 365.933594 130.070312 C 366.484375 128.246094 366.949219 126.402344 367.320312 124.53125 C 367.691406 122.664062 367.972656 120.78125 368.15625 118.886719 C 368.34375 116.992188 368.4375 115.089844 368.4375 113.1875 C 368.4375 85.230469 328.539062 31.765625 320.539062 21.320312 C 320.226562 20.949219 319.894531 20.59375 319.542969 20.257812 C 319.191406 19.917969 318.820312 19.601562 318.433594 19.304688 C 318.046875 19.007812 317.644531 18.734375 317.226562 18.480469 C 316.8125 18.230469 316.382812 18 315.941406 17.792969 C 315.496094 17.589844 315.046875 17.40625 314.585938 17.25 C 314.121094 17.09375 313.652344 16.964844 313.179688 16.859375 C 312.703125 16.753906 312.222656 16.671875 311.738281 16.621094 C 311.253906 16.566406 310.765625 16.539062 310.277344 16.539062 C 309.792969 16.539062 309.304688 16.566406 308.820312 16.621094 C 308.335938 16.671875 307.855469 16.753906 307.378906 16.859375 C 306.902344 16.964844 306.433594 17.09375 305.972656 17.25 C 305.511719 17.40625 305.058594 17.589844 304.617188 17.792969 C 304.175781 18 303.746094 18.230469 303.332031 18.480469 C 302.914062 18.734375 302.511719 19.007812 302.125 19.304688 C 301.738281 19.601562 301.367188 19.917969 301.015625 20.257812 C 300.664062 20.59375 300.332031 20.949219 300.015625 21.320312 C 292.015625 31.765625 252.121094 85.230469 252.121094 113.1875 C 252.121094 115.089844 252.214844 116.992188 252.402344 118.886719 C 252.585938 120.78125 252.867188 122.664062 253.238281 124.53125 C 253.609375 126.402344 254.070312 128.246094 254.625 130.070312 C 255.175781 131.890625 255.820312 133.683594 256.546875 135.441406 C 257.277344 137.203125 258.089844 138.921875 258.988281 140.601562 C 259.886719 142.28125 260.863281 143.914062 261.921875 145.496094 C 262.980469 147.082031 264.113281 148.609375 265.320312 150.082031 C 266.53125 151.554688 267.808594 152.964844 269.15625 154.3125 C 270.5 155.65625 271.910156 156.933594 273.382812 158.144531 C 274.855469 159.351562 276.382812 160.484375 277.96875 161.542969 C 279.550781 162.601562 281.183594 163.578125 282.863281 164.476562 C 284.542969 165.375 286.261719 166.1875 288.023438 166.917969 C 289.78125 167.648438 291.574219 168.289062 293.398438 168.839844 C 295.21875 169.394531 297.066406 169.855469 298.933594 170.226562 C 300.800781 170.597656 302.683594 170.878906 304.578125 171.066406 C 306.472656 171.25 308.375 171.34375 310.277344 171.34375 Z M 310.277344 51.152344 C 325.996094 73.5625 342.589844 101.554688 342.589844 113.1875 C 342.589844 114.246094 342.539062 115.300781 342.433594 116.351562 C 342.328125 117.40625 342.175781 118.453125 341.96875 119.488281 C 341.761719 120.527344 341.503906 121.554688 341.199219 122.566406 C 340.890625 123.578125 340.535156 124.574219 340.128906 125.550781 C 339.726562 126.527344 339.273438 127.484375 338.773438 128.417969 C 338.273438 129.351562 337.730469 130.257812 337.144531 131.136719 C 336.554688 132.015625 335.925781 132.867188 335.253906 133.683594 C 334.582031 134.5 333.875 135.285156 333.125 136.03125 C 332.378906 136.78125 331.59375 137.492188 330.777344 138.164062 C 329.957031 138.832031 329.109375 139.464844 328.230469 140.050781 C 327.351562 140.640625 326.441406 141.183594 325.511719 141.679688 C 324.578125 142.179688 323.621094 142.632812 322.644531 143.039062 C 321.664062 143.441406 320.671875 143.796875 319.65625 144.105469 C 318.644531 144.414062 317.621094 144.667969 316.582031 144.875 C 315.542969 145.082031 314.5 145.238281 313.445312 145.339844 C 312.394531 145.445312 311.335938 145.496094 310.277344 145.496094 C 309.222656 145.496094 308.164062 145.445312 307.113281 145.339844 C 306.058594 145.238281 305.011719 145.082031 303.976562 144.875 C 302.9375 144.667969 301.914062 144.414062 300.898438 144.105469 C 299.886719 143.796875 298.890625 143.441406 297.914062 143.039062 C 296.9375 142.632812 295.980469 142.179688 295.046875 141.679688 C 294.113281 141.183594 293.207031 140.640625 292.328125 140.050781 C 291.449219 139.464844 290.597656 138.832031 289.78125 138.164062 C 288.964844 137.492188 288.179688 136.78125 287.433594 136.03125 C 286.683594 135.285156 285.972656 134.5 285.304688 133.683594 C 284.632812 132.867188 284 132.015625 283.414062 131.136719 C 282.824219 130.257812 282.28125 129.351562 281.785156 128.417969 C 281.285156 127.484375 280.832031 126.527344 280.429688 125.550781 C 280.023438 124.574219 279.667969 123.578125 279.359375 122.566406 C 279.054688 121.554688 278.796875 120.527344 278.589844 119.488281 C 278.382812 118.453125 278.226562 117.40625 278.125 116.351562 C 278.019531 115.300781 277.96875 114.246094 277.96875 113.1875 C 277.96875 101.554688 294.5625 73.5625 310.277344 51.152344 Z M 310.277344 51.152344 " fill-opacity="1" fill-rule="nonzero"/></g></svg>