<svg xmlns="http://www.w3.org/2000/svg" xmlns:xlink="http://www.w3.org/1999/xlink" width="500" zoomAndPan="magnify" viewBox="0 0 375 374.999991" height="500" preserveAspectRatio="xMidYMid meet" version="1.0"><path fill="#ffffff" d="M 324.742188 177.066406 C 320.148438 172.296875 315.335938 167.757812 310.300781 163.453125 C 305.269531 159.152344 300.039062 155.101562 294.613281 151.304688 C 289.1875 147.507812 283.59375 143.980469 277.824219 140.726562 C 272.058594 137.46875 266.148438 134.5 260.09375 131.816406 C 254.039062 129.132812 247.871094 126.75 241.585938 124.664062 C 235.300781 122.578125 228.929688 120.800781 222.472656 119.332031 C 216.015625 117.863281 209.5 116.710938 202.933594 115.875 C 196.363281 115.035156 189.769531 114.515625 183.152344 114.316406 C 93.003906 112.703125 37.324219 173.496094 29.386719 182.449219 C 27.433594 184.808594 25.414062 187.097656 23.460938 189.453125 C 25.484375 191.742188 28.378906 195.039062 32.074219 198.742188 C 57.394531 224.191406 110.640625 263.511719 183.152344 261.757812 C 189.769531 261.5625 196.363281 261.046875 202.929688 260.210938 C 209.496094 259.375 216.007812 258.222656 222.464844 256.757812 C 228.921875 255.289062 235.292969 253.515625 241.578125 251.433594 C 247.863281 249.351562 254.03125 246.96875 260.085938 244.289062 C 266.140625 241.609375 272.050781 238.644531 277.816406 235.390625 C 283.585938 232.136719 289.179688 228.617188 294.609375 224.820312 C 300.035156 221.027344 305.261719 216.980469 310.296875 212.679688 C 315.332031 208.378906 320.148438 203.847656 324.742188 199.078125 C 328.304688 195.578125 331.871094 192.011719 335.371094 188.441406 C 331.871094 184.664062 328.304688 180.828125 324.742188 177.066406 Z M 49.988281 188.039062 C 53.589844 184.484375 57.328125 181.085938 61.207031 177.835938 C 65.085938 174.589844 69.089844 171.503906 73.21875 168.582031 C 77.347656 165.65625 81.585938 162.910156 85.941406 160.332031 C 90.292969 157.753906 94.746094 155.359375 99.292969 153.144531 C 103.839844 150.929688 108.472656 148.90625 113.1875 147.070312 C 117.898438 145.230469 122.679688 143.589844 127.527344 142.140625 C 132.375 140.695312 137.273438 139.445312 142.21875 138.398438 C 147.167969 137.351562 152.152344 136.503906 157.171875 135.863281 C 154.628906 136.945312 152.179688 138.210938 149.820312 139.652344 C 147.460938 141.09375 145.222656 142.699219 143.097656 144.46875 C 140.976562 146.238281 138.992188 148.152344 137.148438 150.214844 C 135.308594 152.273438 133.621094 154.453125 132.097656 156.761719 C 130.574219 159.066406 129.226562 161.46875 128.054688 163.972656 C 126.878906 166.476562 125.894531 169.050781 125.097656 171.695312 C 124.300781 174.34375 123.699219 177.03125 123.296875 179.765625 C 122.894531 182.5 122.691406 185.25 122.6875 188.015625 C 122.6875 190.777344 122.886719 193.527344 123.285156 196.261719 C 123.683594 198.996094 124.28125 201.6875 125.074219 204.335938 C 125.867188 206.984375 126.847656 209.558594 128.019531 212.0625 C 129.1875 214.566406 130.535156 216.972656 132.054688 219.28125 C 133.574219 221.589844 135.257812 223.773438 137.097656 225.835938 C 138.9375 227.898438 140.917969 229.816406 143.039062 231.585938 C 145.15625 233.359375 147.394531 234.96875 149.75 236.414062 C 152.105469 237.859375 154.554688 239.128906 157.097656 240.214844 C 152.082031 239.574219 147.097656 238.734375 142.152344 237.6875 C 137.203125 236.640625 132.308594 235.394531 127.464844 233.945312 C 122.617188 232.5 117.839844 230.859375 113.128906 229.023438 C 108.417969 227.1875 103.789062 225.160156 99.246094 222.945312 C 94.699219 220.730469 90.25 218.335938 85.902344 215.757812 C 81.550781 213.179688 77.3125 210.429688 73.1875 207.503906 C 69.0625 204.578125 65.0625 201.492188 61.191406 198.242188 C 57.316406 194.992188 53.582031 191.585938 49.988281 188.03125 Z M 179.453125 224.597656 C 178.257812 224.597656 177.0625 224.539062 175.875 224.421875 C 174.683594 224.308594 173.5 224.132812 172.324219 223.898438 C 171.152344 223.667969 169.992188 223.378906 168.847656 223.03125 C 167.703125 222.683594 166.574219 222.285156 165.46875 221.828125 C 164.363281 221.371094 163.28125 220.859375 162.226562 220.296875 C 161.171875 219.734375 160.144531 219.117188 159.152344 218.453125 C 158.15625 217.789062 157.195312 217.078125 156.269531 216.320312 C 155.34375 215.5625 154.457031 214.761719 153.609375 213.914062 C 152.765625 213.070312 151.960938 212.183594 151.199219 211.257812 C 150.441406 210.335938 149.730469 209.375 149.0625 208.378906 C 148.398438 207.386719 147.78125 206.359375 147.21875 205.304688 C 146.652344 204.25 146.140625 203.171875 145.683594 202.066406 C 145.226562 200.960938 144.820312 199.835938 144.472656 198.6875 C 144.125 197.542969 143.835938 196.386719 143.601562 195.210938 C 143.367188 194.039062 143.191406 192.855469 143.074219 191.664062 C 142.957031 190.472656 142.898438 189.28125 142.898438 188.082031 C 142.898438 186.886719 142.957031 185.691406 143.070312 184.503906 C 143.1875 183.3125 143.363281 182.128906 143.597656 180.953125 C 143.832031 179.78125 144.121094 178.621094 144.46875 177.476562 C 144.816406 176.332031 145.21875 175.207031 145.675781 174.101562 C 146.132812 172.996094 146.644531 171.914062 147.207031 170.859375 C 147.773438 169.804688 148.386719 168.777344 149.050781 167.78125 C 149.714844 166.789062 150.425781 165.828125 151.1875 164.902344 C 151.945312 163.976562 152.75 163.09375 153.59375 162.246094 C 154.441406 161.398438 155.328125 160.597656 156.25 159.839844 C 157.175781 159.078125 158.136719 158.367188 159.132812 157.703125 C 160.125 157.039062 161.152344 156.421875 162.207031 155.859375 C 163.261719 155.296875 164.34375 154.785156 165.449219 154.328125 C 166.554688 153.867188 167.679688 153.464844 168.824219 153.117188 C 169.96875 152.773438 171.128906 152.480469 172.304688 152.25 C 173.476562 152.015625 174.660156 151.839844 175.851562 151.722656 C 177.042969 151.605469 178.234375 151.546875 179.433594 151.546875 C 180.628906 151.546875 181.824219 151.609375 183.011719 151.726562 C 184.203125 151.84375 185.386719 152.019531 186.558594 152.253906 C 187.734375 152.488281 188.894531 152.777344 190.039062 153.125 C 191.183594 153.472656 192.308594 153.875 193.414062 154.335938 C 194.519531 154.792969 195.597656 155.304688 196.652344 155.871094 C 197.710938 156.433594 198.734375 157.050781 199.730469 157.714844 C 200.722656 158.378906 201.683594 159.09375 202.609375 159.851562 C 203.53125 160.613281 204.417969 161.414062 205.261719 162.261719 C 206.109375 163.109375 206.910156 163.996094 207.667969 164.921875 C 208.429688 165.847656 209.140625 166.804688 209.804688 167.800781 C 210.46875 168.796875 211.082031 169.824219 211.644531 170.878906 C 212.207031 171.933594 212.71875 173.015625 213.175781 174.121094 C 213.632812 175.226562 214.035156 176.351562 214.378906 177.5 C 214.726562 178.644531 215.015625 179.804688 215.25 180.976562 C 215.480469 182.152344 215.65625 183.332031 215.773438 184.523438 C 215.886719 185.714844 215.945312 186.910156 215.945312 188.105469 C 215.941406 189.300781 215.882812 190.492188 215.765625 191.679688 C 215.644531 192.871094 215.46875 194.050781 215.234375 195.21875 C 215 196.390625 214.710938 197.550781 214.363281 198.691406 C 214.011719 199.835938 213.609375 200.957031 213.152344 202.0625 C 212.695312 203.164062 212.183594 204.242188 211.621094 205.296875 C 211.054688 206.347656 210.441406 207.371094 209.777344 208.363281 C 209.113281 209.355469 208.402344 210.316406 207.644531 211.238281 C 206.886719 212.160156 206.085938 213.046875 205.242188 213.890625 C 204.394531 214.734375 203.511719 215.535156 202.589844 216.292969 C 201.664062 217.050781 200.707031 217.761719 199.714844 218.425781 C 198.722656 219.089844 197.699219 219.703125 196.644531 220.269531 C 195.589844 220.832031 194.511719 221.34375 193.410156 221.800781 C 192.304688 222.257812 191.183594 222.660156 190.039062 223.007812 C 188.898438 223.355469 187.742188 223.644531 186.570312 223.878906 C 185.398438 224.113281 184.21875 224.289062 183.03125 224.410156 C 181.839844 224.527344 180.648438 224.585938 179.453125 224.589844 Z M 202.070312 240.082031 C 204.589844 238.984375 207.015625 237.710938 209.347656 236.261719 C 211.683594 234.8125 213.902344 233.199219 216 231.429688 C 218.101562 229.65625 220.0625 227.742188 221.882812 225.6875 C 223.707031 223.628906 225.367188 221.453125 226.875 219.152344 C 228.378906 216.855469 229.710938 214.457031 230.867188 211.964844 C 232.023438 209.472656 232.996094 206.910156 233.78125 204.277344 C 234.5625 201.644531 235.152344 198.96875 235.550781 196.25 C 235.945312 193.53125 236.140625 190.796875 236.140625 188.050781 C 236.136719 185.300781 235.9375 182.570312 235.539062 179.851562 C 235.140625 177.132812 234.546875 174.457031 233.757812 171.824219 C 232.972656 169.191406 231.996094 166.632812 230.835938 164.140625 C 229.675781 161.648438 228.34375 159.257812 226.832031 156.960938 C 225.324219 154.664062 223.660156 152.488281 221.835938 150.433594 C 220.011719 148.378906 218.046875 146.464844 215.945312 144.695312 C 213.84375 142.929688 211.621094 141.320312 209.285156 139.875 C 206.949219 138.425781 204.523438 137.15625 202 136.0625 C 206.933594 136.742188 211.832031 137.617188 216.691406 138.691406 C 221.554688 139.765625 226.363281 141.03125 231.125 142.492188 C 235.882812 143.953125 240.578125 145.601562 245.203125 147.441406 C 249.832031 149.28125 254.375 151.300781 258.839844 153.507812 C 263.304688 155.710938 267.671875 158.09375 271.945312 160.648438 C 276.214844 163.203125 280.378906 165.929688 284.429688 168.820312 C 288.484375 171.710938 292.414062 174.761719 296.222656 177.96875 C 300.027344 181.179688 303.699219 184.535156 307.238281 188.039062 C 303.703125 191.542969 300.03125 194.894531 296.226562 198.105469 C 292.421875 201.3125 288.492188 204.363281 284.441406 207.253906 C 280.390625 210.144531 276.234375 212.871094 271.964844 215.429688 C 267.695312 217.984375 263.328125 220.367188 258.867188 222.574219 C 254.40625 224.78125 249.867188 226.808594 245.242188 228.648438 C 240.617188 230.492188 235.929688 232.144531 231.171875 233.609375 C 226.417969 235.074219 221.609375 236.347656 216.75 237.425781 C 211.890625 238.503906 207 239.386719 202.070312 240.074219 Z M 4.058594 75.328125 C 3.648438 74.855469 3.289062 74.34375 2.976562 73.796875 C 2.667969 73.25 2.410156 72.679688 2.210938 72.085938 C 2.011719 71.492188 1.867188 70.882812 1.785156 70.257812 C 1.703125 69.636719 1.679688 69.011719 1.714844 68.386719 C 1.753906 67.757812 1.851562 67.140625 2.007812 66.53125 C 2.164062 65.925781 2.378906 65.335938 2.648438 64.769531 C 2.921875 64.203125 3.242188 63.667969 3.617188 63.164062 C 3.992188 62.660156 4.410156 62.195312 4.875 61.769531 C 5.324219 61.316406 5.8125 60.90625 6.339844 60.546875 C 6.871094 60.183594 7.425781 59.878906 8.015625 59.625 C 8.601562 59.371094 9.210938 59.179688 9.835938 59.042969 C 10.460938 58.90625 11.09375 58.835938 11.734375 58.820312 C 12.371094 58.808594 13.007812 58.855469 13.636719 58.96875 C 14.269531 59.078125 14.882812 59.246094 15.480469 59.476562 C 16.078125 59.707031 16.644531 59.988281 17.1875 60.328125 C 17.730469 60.667969 18.234375 61.058594 18.703125 61.496094 C 26.363281 68.949219 33.945312 76.5 41.332031 84.230469 C 42.707031 86.1875 43.765625 88.300781 44.515625 90.570312 C 44.4375 91.582031 44.226562 92.566406 43.886719 93.519531 C 43.546875 94.472656 43.089844 95.367188 42.511719 96.199219 C 41.933594 97.03125 41.257812 97.777344 40.484375 98.429688 C 39.707031 99.082031 38.863281 99.625 37.945312 100.050781 C 37.105469 100.511719 36.214844 100.828125 35.269531 101.007812 C 34.328125 101.183594 33.382812 101.207031 32.433594 101.085938 C 31.484375 100.960938 30.578125 100.691406 29.710938 100.28125 C 28.847656 99.867188 28.070312 99.332031 27.375 98.671875 C 19.445312 91.050781 11.632812 83.292969 4.058594 75.328125 Z M 178.855469 40.597656 C 178.800781 35.515625 178.855469 30.425781 178.855469 25.339844 C 178.855469 20.25 178.78125 15.160156 178.855469 10.078125 C 178.855469 9.414062 178.921875 8.757812 179.050781 8.105469 C 179.179688 7.453125 179.371094 6.820312 179.625 6.207031 C 179.878906 5.59375 180.191406 5.011719 180.558594 4.457031 C 180.929688 3.90625 181.347656 3.394531 181.816406 2.925781 C 182.289062 2.457031 182.800781 2.035156 183.351562 1.667969 C 183.902344 1.296875 184.484375 0.988281 185.101562 0.734375 C 185.714844 0.480469 186.347656 0.285156 186.996094 0.15625 C 187.648438 0.0273438 188.308594 -0.0351562 188.972656 -0.0351562 C 189.636719 -0.0351562 190.292969 0.0273438 190.945312 0.15625 C 191.597656 0.285156 192.226562 0.480469 192.84375 0.734375 C 193.457031 0.988281 194.039062 1.296875 194.589844 1.667969 C 195.144531 2.035156 195.652344 2.457031 196.125 2.925781 C 196.59375 3.394531 197.011719 3.90625 197.382812 4.457031 C 197.75 5.011719 198.0625 5.59375 198.316406 6.207031 C 198.570312 6.820312 198.761719 7.453125 198.890625 8.105469 C 199.023438 8.757812 199.085938 9.414062 199.085938 10.078125 C 199.195312 20.351562 199.195312 30.628906 199.085938 40.90625 C 199.078125 41.570312 199.003906 42.230469 198.863281 42.878906 C 198.726562 43.53125 198.523438 44.160156 198.261719 44.769531 C 198 45.382812 197.679688 45.960938 197.300781 46.507812 C 196.925781 47.054688 196.496094 47.5625 196.019531 48.023438 C 195.542969 48.488281 195.027344 48.902344 194.46875 49.261719 C 193.910156 49.625 193.324219 49.929688 192.707031 50.175781 C 192.085938 50.421875 191.453125 50.601562 190.796875 50.722656 C 190.144531 50.84375 189.484375 50.898438 188.820312 50.890625 C 188.15625 50.882812 187.496094 50.808594 186.847656 50.667969 C 186.195312 50.53125 185.566406 50.328125 184.957031 50.066406 C 184.34375 49.804688 183.765625 49.484375 183.21875 49.105469 C 182.671875 48.730469 182.164062 48.300781 181.699219 47.824219 C 181.238281 47.347656 180.824219 46.832031 180.464844 46.273438 C 180.101562 45.714844 179.796875 45.128906 179.550781 44.507812 C 179.304688 43.890625 179.121094 43.257812 179.003906 42.601562 C 178.882812 41.949219 178.824219 41.289062 178.835938 40.625 Z M 332.859375 100.839844 C 332.394531 99.921875 332.082031 98.953125 331.925781 97.933594 C 331.769531 96.914062 331.777344 95.894531 331.953125 94.878906 C 332.125 93.863281 332.449219 92.898438 332.933594 91.988281 C 333.414062 91.074219 334.027344 90.261719 334.773438 89.550781 C 339.9375 84.203125 345.25 79.003906 350.5 73.746094 C 352.585938 71.660156 354.640625 69.535156 356.796875 67.519531 C 357.257812 67.0625 357.761719 66.652344 358.304688 66.292969 C 358.847656 65.933594 359.417969 65.628906 360.019531 65.378906 C 360.621094 65.128906 361.242188 64.941406 361.878906 64.8125 C 362.515625 64.679688 363.160156 64.613281 363.8125 64.609375 C 364.464844 64.605469 365.109375 64.660156 365.75 64.78125 C 366.390625 64.902344 367.011719 65.082031 367.617188 65.320312 C 368.222656 65.5625 368.796875 65.859375 369.347656 66.210938 C 369.894531 66.5625 370.402344 66.960938 370.871094 67.414062 C 371.359375 67.867188 371.792969 68.363281 372.179688 68.90625 C 372.566406 69.449219 372.894531 70.023438 373.164062 70.628906 C 373.4375 71.234375 373.644531 71.863281 373.792969 72.511719 C 373.9375 73.160156 374.019531 73.816406 374.035156 74.480469 C 374.050781 75.144531 374.003906 75.804688 373.886719 76.460938 C 373.773438 77.113281 373.59375 77.75 373.351562 78.371094 C 373.109375 78.988281 372.808594 79.578125 372.449219 80.136719 C 372.089844 80.695312 371.679688 81.214844 371.214844 81.691406 C 363.917969 89.210938 356.519531 96.660156 348.9375 103.910156 C 347.277344 105.171875 345.453125 106.125 343.472656 106.777344 C 342.386719 106.902344 341.3125 106.855469 340.242188 106.640625 C 339.171875 106.425781 338.160156 106.050781 337.210938 105.519531 C 336.257812 104.984375 335.410156 104.320312 334.667969 103.519531 C 333.925781 102.722656 333.324219 101.828125 332.859375 100.839844 Z M 44.515625 284.441406 C 43.765625 286.710938 42.707031 288.828125 41.332031 290.785156 C 33.925781 298.511719 26.363281 306.066406 18.703125 313.519531 C 18.234375 313.957031 17.730469 314.34375 17.1875 314.683594 C 16.644531 315.023438 16.078125 315.308594 15.480469 315.535156 C 14.882812 315.765625 14.269531 315.9375 13.636719 316.046875 C 13.007812 316.15625 12.371094 316.203125 11.734375 316.191406 C 11.09375 316.179688 10.460938 316.105469 9.835938 315.96875 C 9.210938 315.835938 8.601562 315.640625 8.015625 315.386719 C 7.425781 315.136719 6.871094 314.828125 6.339844 314.46875 C 5.8125 314.105469 5.324219 313.699219 4.875 313.242188 C 4.410156 312.820312 3.992188 312.355469 3.617188 311.851562 C 3.242188 311.347656 2.921875 310.808594 2.648438 310.242188 C 2.378906 309.675781 2.164062 309.089844 2.007812 308.480469 C 1.851562 307.871094 1.753906 307.253906 1.714844 306.628906 C 1.679688 306 1.703125 305.375 1.785156 304.753906 C 1.867188 304.132812 2.011719 303.523438 2.210938 302.925781 C 2.410156 302.332031 2.667969 301.761719 2.976562 301.214844 C 3.289062 300.671875 3.648438 300.160156 4.058594 299.683594 C 11.632812 291.710938 19.445312 283.964844 27.375 276.34375 C 28.070312 275.683594 28.851562 275.152344 29.71875 274.742188 C 30.582031 274.332031 31.488281 274.066406 32.441406 273.945312 C 33.390625 273.824219 34.335938 273.855469 35.277344 274.035156 C 36.214844 274.214844 37.105469 274.535156 37.945312 274.996094 C 38.859375 275.421875 39.703125 275.960938 40.476562 276.613281 C 41.25 277.261719 41.925781 278.003906 42.503906 278.832031 C 43.082031 279.664062 43.539062 280.550781 43.878906 281.503906 C 44.222656 282.453125 44.433594 283.433594 44.515625 284.441406 Z M 199.105469 334.132812 C 199.214844 344.40625 199.214844 354.683594 199.105469 364.960938 C 199.105469 365.625 199.042969 366.285156 198.914062 366.933594 C 198.78125 367.585938 198.589844 368.21875 198.335938 368.832031 C 198.082031 369.445312 197.769531 370.03125 197.402344 370.582031 C 197.03125 371.132812 196.613281 371.644531 196.144531 372.113281 C 195.675781 372.585938 195.164062 373.003906 194.609375 373.371094 C 194.058594 373.742188 193.476562 374.054688 192.863281 374.308594 C 192.25 374.5625 191.617188 374.753906 190.964844 374.882812 C 190.3125 375.011719 189.65625 375.078125 188.992188 375.078125 C 188.328125 375.078125 187.667969 375.011719 187.019531 374.882812 C 186.367188 374.753906 185.734375 374.5625 185.121094 374.308594 C 184.507812 374.054688 183.921875 373.742188 183.371094 373.371094 C 182.820312 373.003906 182.308594 372.585938 181.839844 372.113281 C 181.367188 371.644531 180.949219 371.132812 180.582031 370.582031 C 180.210938 370.03125 179.898438 369.445312 179.644531 368.832031 C 179.390625 368.21875 179.199219 367.585938 179.070312 366.933594 C 178.941406 366.285156 178.875 365.625 178.875 364.960938 C 178.78125 359.878906 178.875 354.789062 178.875 349.699219 C 178.875 344.617188 178.835938 339.527344 178.875 334.445312 C 178.867188 333.777344 178.921875 333.121094 179.042969 332.464844 C 179.164062 331.8125 179.347656 331.175781 179.59375 330.558594 C 179.839844 329.941406 180.140625 329.351562 180.503906 328.792969 C 180.867188 328.234375 181.277344 327.71875 181.742188 327.242188 C 182.203125 326.765625 182.710938 326.339844 183.257812 325.960938 C 183.804688 325.585938 184.386719 325.265625 184.996094 325 C 185.605469 324.738281 186.238281 324.539062 186.886719 324.398438 C 187.539062 324.261719 188.195312 324.1875 188.859375 324.175781 C 189.523438 324.167969 190.183594 324.222656 190.839844 324.34375 C 191.492188 324.464844 192.128906 324.648438 192.746094 324.894531 C 193.363281 325.140625 193.953125 325.441406 194.507812 325.804688 C 195.066406 326.164062 195.585938 326.578125 196.0625 327.042969 C 196.539062 327.503906 196.964844 328.011719 197.34375 328.558594 C 197.71875 329.105469 198.039062 329.6875 198.300781 330.296875 C 198.566406 330.90625 198.765625 331.539062 198.90625 332.1875 C 199.042969 332.839844 199.117188 333.496094 199.128906 334.160156 Z M 371.214844 293.316406 C 371.679688 293.789062 372.097656 294.300781 372.460938 294.859375 C 372.824219 295.414062 373.128906 296 373.378906 296.613281 C 373.625 297.230469 373.8125 297.863281 373.9375 298.515625 C 374.0625 299.167969 374.121094 299.824219 374.113281 300.488281 C 374.109375 301.152344 374.039062 301.808594 373.902344 302.457031 C 373.765625 303.109375 373.570312 303.738281 373.3125 304.351562 C 373.050781 304.960938 372.734375 305.542969 372.363281 306.089844 C 371.988281 306.636719 371.566406 307.144531 371.089844 307.609375 C 370.617188 308.078125 370.105469 308.492188 369.550781 308.855469 C 368.996094 309.21875 368.410156 309.527344 367.792969 309.773438 C 367.179688 310.023438 366.542969 310.210938 365.894531 310.332031 C 365.242188 310.457031 364.582031 310.515625 363.917969 310.511719 C 363.253906 310.507812 362.597656 310.4375 361.949219 310.300781 C 361.296875 310.167969 360.667969 309.96875 360.058594 309.710938 C 359.445312 309.453125 358.867188 309.136719 358.316406 308.761719 C 357.769531 308.390625 357.261719 307.964844 356.796875 307.492188 C 354.640625 305.472656 352.585938 303.351562 350.5 301.265625 C 345.25 296.007812 339.9375 290.804688 334.773438 285.464844 C 334.03125 284.75 333.417969 283.9375 332.933594 283.023438 C 332.453125 282.113281 332.125 281.148438 331.953125 280.132812 C 331.78125 279.113281 331.773438 278.097656 331.925781 277.078125 C 332.082031 276.058594 332.394531 275.085938 332.859375 274.167969 C 333.324219 273.179688 333.929688 272.289062 334.671875 271.492188 C 335.414062 270.695312 336.261719 270.03125 337.214844 269.5 C 338.164062 268.96875 339.175781 268.59375 340.246094 268.378906 C 341.3125 268.164062 342.390625 268.121094 343.472656 268.242188 C 345.453125 268.898438 347.277344 269.855469 348.9375 271.117188 C 356.519531 278.355469 363.890625 285.800781 371.214844 293.316406 Z M 371.214844 293.316406 " fill-opacity="1" fill-rule="nonzero"/></svg>