<svg xmlns="http://www.w3.org/2000/svg" xmlns:xlink="http://www.w3.org/1999/xlink" width="500" zoomAndPan="magnify" viewBox="0 0 375 374.999991" height="500" preserveAspectRatio="xMidYMid meet" version="1.0"><defs><clipPath id="493078b582"><path d="M 49 256 L 244 256 L 244 319.546875 L 49 319.546875 Z M 49 256 " clip-rule="nonzero"/></clipPath></defs><path fill="#ffffff" d="M 0.332031 154.265625 C 0.722656 153.304688 1.585938 151.410156 3.082031 149.523438 C 4.574219 147.640625 6.757812 145.71875 9.644531 143.71875 C 12.53125 141.722656 16.15625 139.667969 19.925781 138.011719 C 23.699219 136.351562 27.332031 135.242188 31.039062 134.4375 C 34.742188 133.632812 38.527344 133.140625 42.390625 132.9375 C 46.253906 132.734375 50.210938 132.851562 53.585938 133.175781 C 56.960938 133.503906 59.726562 133.917969 62.457031 134.417969 C 65.183594 134.917969 67.878906 135.5 70.542969 136.164062 C 73.207031 136.824219 75.84375 137.550781 86.296875 141.316406 C 96.75 145.085938 113.46875 151.160156 127.527344 156.113281 C 141.585938 161.0625 152.996094 164.898438 161.777344 167.625 C 170.558594 170.351562 176.769531 171.972656 182.386719 173.152344 C 188.007812 174.335938 194.765625 175.609375 201.183594 176.496094 C 207.601562 177.382812 213.679688 177.878906 219.421875 177.980469 C 225.167969 178.085938 230.578125 177.792969 237.75 176.707031 C 244.925781 175.617188 253.425781 173.632812 261.011719 171.058594 C 268.601562 168.480469 275.277344 165.300781 281.023438 161.488281 C 286.773438 157.679688 291.570312 153.226562 295.980469 147.15625 C 300.390625 141.085938 303.945312 133.957031 305.824219 126.90625 C 307.707031 119.855469 307.84375 112.921875 306.160156 106.25 C 304.476562 99.578125 300.988281 93.324219 296.511719 88.902344 C 292.035156 84.480469 288.160156 82.90625 284.195312 82.625 C 280.230469 82.339844 276.382812 83.386719 272.820312 85.617188 C 269.257812 87.851562 265.96875 91.164062 263.414062 95.128906 C 260.859375 99.09375 259.71875 102.84375 259.625 106.539062 C 259.535156 110.238281 260.507812 113.796875 262.507812 117.113281 C 264.511719 120.429688 267.535156 123.4375 270.132812 125.675781 C 272.730469 127.917969 272.730469 127.917969 271.140625 126.300781 C 271.140625 126.300781 268.371094 122.695312 266.554688 119.308594 C 264.738281 115.921875 263.773438 112.796875 263.640625 109.839844 C 263.507812 106.886719 264.171875 104.015625 265.636719 101.171875 C 267.105469 98.328125 270.136719 95.117188 273.042969 92.929688 C 275.949219 90.742188 278.609375 89.609375 281.0625 89.394531 C 283.515625 89.175781 285.953125 89.78125 288.347656 91.125 C 290.746094 92.472656 294.308594 97.578125 296.507812 102.851562 C 298.707031 108.128906 299.539062 113.476562 298.945312 119.101562 C 298.351562 124.726562 296.277344 130.710938 292.640625 137.0625 C 289.007812 143.414062 285.5625 147.46875 281.152344 151.117188 C 276.742188 154.761719 271.367188 157.949219 265.003906 160.660156 C 258.640625 163.375 251.285156 165.589844 242.929688 167.289062 C 234.574219 168.988281 229.90625 169.492188 224.796875 169.640625 C 219.683594 169.789062 214.191406 169.570312 208.3125 168.972656 C 202.4375 168.378906 196.179688 167.40625 189.5 166.039062 C 182.824219 164.675781 178.664062 163.867188 171.890625 161.957031 C 165.113281 160.042969 155.597656 156.992188 143.386719 152.8125 C 131.175781 148.632812 116.285156 143.328125 98.703125 136.890625 C 81.117188 130.453125 78.148438 129.550781 75.304688 128.8125 C 72.460938 128.070312 69.574219 127.472656 66.660156 126.988281 C 63.746094 126.5 60.800781 126.113281 57.789062 125.839844 C 54.777344 125.570312 50.382812 125.457031 46.082031 125.699219 C 41.785156 125.941406 37.601562 126.542969 33.546875 127.496094 C 29.492188 128.445312 25.566406 129.734375 21.738281 131.40625 C 17.914062 133.078125 13.761719 135.742188 10.449219 138.320312 C 7.136719 140.898438 4.578125 143.425781 2.816406 145.914062 C 1.058594 148.402344 0.117188 150.816406 0.105469 152.015625 C 0.0390625 154.25 0.390625 153.230469 0.332031 154.265625 Z M 0.332031 154.265625 " fill-opacity="1" fill-rule="nonzero"/><path fill="#ffffff" d="M 217.707031 204.289062 C 221.113281 205.628906 228.332031 206.425781 235.921875 206.15625 C 243.507812 205.886719 251.425781 204.648438 259.632812 202.457031 C 267.84375 200.261719 276.328125 197.144531 284.074219 193.523438 C 291.820312 189.902344 298.179688 186.0625 303.863281 181.722656 C 309.542969 177.382812 314.578125 172.605469 318.945312 167.390625 C 323.3125 162.179688 327.007812 156.535156 330.023438 150.523438 C 333.042969 144.507812 335.246094 138.332031 336.519531 132.105469 C 337.796875 125.875 338.132812 119.613281 337.40625 113.371094 C 336.679688 107.132812 335.011719 100.945312 332.589844 95.480469 C 330.167969 90.019531 326.960938 85.425781 322.753906 81.035156 C 318.546875 76.644531 313.339844 72.449219 307.128906 68.472656 C 300.914062 64.492188 293.621094 60.855469 287.695312 58.199219 C 281.765625 55.539062 281.765625 55.539062 285.539062 57.621094 C 285.539062 57.621094 292.554688 62.699219 298.714844 67.34375 C 304.878906 71.984375 310.082031 76.425781 314.277344 80.757812 C 318.472656 85.089844 321.652344 89.316406 323.835938 93.417969 C 326.015625 97.519531 327.769531 103.09375 328.726562 108.617188 C 329.679688 114.136719 329.808594 119.585938 329.242188 125.015625 C 328.675781 130.449219 327.285156 135.898438 325.042969 141.394531 C 322.804688 146.890625 319.867188 152.253906 316.328125 157.222656 C 312.785156 162.191406 308.621094 166.789062 303.824219 171.019531 C 299.027344 175.25 293.585938 179.121094 287.542969 182.710938 C 281.5 186.300781 273.375 190.285156 265.527344 193.46875 C 257.679688 196.648438 250.09375 199.015625 242.753906 200.601562 C 235.414062 202.1875 228.289062 203.03125 224.746094 203.707031 C 217.738281 203.996094 221.175781 204.675781 217.707031 204.289062 Z M 217.707031 204.289062 " fill-opacity="1" fill-rule="nonzero"/><path fill="#ffffff" d="M 10.832031 184.304688 C 11.304688 183.203125 12.191406 181.070312 13.558594 179.042969 C 14.925781 177.015625 16.832031 175.058594 19.292969 173.121094 C 21.753906 171.1875 24.8125 169.289062 28.078125 167.625 C 31.34375 165.957031 34.527344 164.679688 37.851562 163.660156 C 41.175781 162.636719 44.65625 161.882812 48.296875 161.386719 C 51.9375 160.894531 55.746094 160.648438 59.144531 160.625 C 62.546875 160.597656 65.460938 160.6875 68.535156 160.90625 C 71.609375 161.125 74.847656 161.484375 78.25 161.953125 C 81.648438 162.421875 85.222656 162.976562 87.917969 163.46875 C 90.617188 163.960938 92.386719 164.328125 94.199219 164.726562 C 96.011719 165.125 97.863281 165.554688 99.761719 165.996094 C 101.660156 166.433594 103.605469 166.882812 107.925781 168.066406 C 112.246094 169.253906 118.558594 170.980469 124.105469 172.433594 C 129.652344 173.890625 134.433594 175.070312 138.457031 175.976562 C 142.476562 176.882812 145.738281 177.539062 148.867188 178.0625 C 151.992188 178.589844 155.5625 179.078125 159.199219 179.464844 C 162.832031 179.855469 166.542969 180.113281 170.320312 180.210938 C 174.101562 180.308594 177.953125 180.152344 180.859375 180.148438 C 183.761719 180.144531 183.761719 180.144531 181.839844 179.996094 C 181.839844 179.996094 178.03125 179.238281 174.320312 178.421875 C 170.605469 177.605469 166.96875 176.855469 163.414062 176.089844 C 159.859375 175.324219 156.382812 174.535156 152.988281 173.683594 C 149.589844 172.832031 146.996094 172.140625 143.644531 171.140625 C 140.289062 170.140625 136.160156 168.851562 131.257812 167.277344 C 126.359375 165.699219 120.6875 163.859375 114.222656 161.730469 C 107.761719 159.601562 105.648438 159.007812 103.683594 158.464844 C 101.71875 157.917969 99.777344 157.453125 97.875 157.019531 C 95.972656 156.585938 94.105469 156.183594 92.257812 155.808594 C 90.40625 155.4375 86.582031 154.765625 82.890625 154.253906 C 79.199219 153.742188 75.65625 153.402344 72.261719 153.21875 C 68.867188 153.03125 65.621094 152.988281 62.539062 153.085938 C 59.453125 153.1875 55.253906 153.5 51.183594 154.105469 C 47.109375 154.710938 43.226562 155.617188 39.535156 156.820312 C 35.847656 158.023438 32.359375 159.527344 29.082031 161.335938 C 25.800781 163.144531 22.328125 165.519531 19.488281 167.957031 C 16.648438 170.398438 14.441406 172.882812 12.917969 175.417969 C 11.394531 177.957031 10.570312 180.503906 10.601562 181.804688 C 10.539062 184.28125 10.925781 183.128906 10.832031 184.304688 Z M 10.832031 184.304688 " fill-opacity="1" fill-rule="nonzero"/><path fill="#ffffff" d="M 28.871094 236.027344 C 32.082031 235.636719 38.449219 234.183594 45.367188 233.136719 C 52.285156 232.085938 59.820312 231.546875 68.003906 231.507812 C 76.191406 231.46875 85.039062 231.941406 91.316406 232.582031 C 97.59375 233.226562 101.019531 233.777344 104.503906 234.390625 C 107.988281 235 111.535156 235.644531 115.144531 236.378906 C 118.75 237.109375 122.410156 237.925781 134.105469 241.019531 C 145.800781 244.117188 163.8125 248.933594 179.144531 252.949219 C 194.476562 256.96875 207.132812 260.1875 217.117188 262.609375 C 227.105469 265.03125 234.445312 266.660156 239.878906 267.71875 C 245.3125 268.777344 250.722656 269.65625 256.175781 270.289062 C 261.628906 270.921875 267.117188 271.3125 272.648438 271.460938 C 278.175781 271.609375 283.746094 271.515625 291.835938 270.785156 C 299.929688 270.050781 309.941406 268.117188 319.1875 265.082031 C 328.433594 262.042969 336.898438 257.898438 344.550781 252.640625 C 352.207031 247.386719 359.03125 241.03125 364.359375 233.507812 C 369.6875 225.980469 372.632812 218.804688 373.8125 212.082031 C 374.996094 205.359375 374.277344 199.109375 371.566406 193.585938 C 368.859375 188.0625 364.296875 183.476562 359.71875 180.929688 C 355.140625 178.386719 352.375 177.855469 349.609375 177.765625 C 346.84375 177.675781 344.109375 178.03125 341.4375 178.824219 C 338.769531 179.621094 336.1875 180.835938 333.605469 182.457031 C 331.023438 184.074219 328.453125 186.054688 326.128906 188.289062 C 323.808594 190.523438 321.746094 193.003906 319.949219 195.722656 C 318.152344 198.4375 316.621094 201.382812 315.378906 204.371094 C 314.132812 207.355469 313.296875 210.410156 313.125 213.425781 C 312.953125 216.445312 313.4375 219.363281 314.589844 222.074219 C 315.746094 224.789062 317.511719 227.226562 320.140625 229.28125 C 322.773438 231.332031 325.476562 232.304688 328.257812 232.523438 C 331.035156 232.738281 333.769531 232.171875 336.320312 230.878906 C 338.871094 229.589844 341.234375 227.675781 343.59375 224.84375 C 345.953125 222.011719 347.816406 218.988281 349.011719 216.195312 C 350.210938 213.40625 350.699219 210.789062 350.3125 208.359375 C 349.921875 205.929688 348.597656 203.914062 345.949219 202.855469 C 343.300781 201.800781 340.796875 202.148438 338.417969 203.167969 C 336.042969 204.1875 333.816406 205.820312 331.753906 208.0625 C 329.691406 210.304688 327.839844 213.179688 326.378906 215.507812 C 324.917969 217.832031 324.917969 217.832031 326.003906 216.371094 C 326.003906 216.371094 328.507812 213.710938 330.914062 211.683594 C 333.316406 209.660156 335.53125 208.199219 337.570312 207.292969 C 339.609375 206.386719 341.496094 206.03125 343.039062 206.085938 C 344.582031 206.144531 345.007812 206.835938 345.335938 207.847656 C 345.664062 208.859375 345.558594 210.164062 344.882812 211.945312 C 344.203125 213.730469 342.855469 215.953125 340.824219 218.511719 C 338.792969 221.070312 336.949219 222.695312 335.183594 223.78125 C 333.417969 224.867188 331.84375 225.386719 330.40625 225.464844 C 328.96875 225.539062 327.539062 225.207031 326.128906 224.488281 C 324.714844 223.765625 323.566406 222.367188 322.660156 220.761719 C 321.753906 219.152344 321.292969 217.523438 321.210938 215.785156 C 321.132812 214.050781 321.441406 212.117188 322.210938 209.871094 C 322.976562 207.621094 324.136719 204.96875 325.46875 202.601562 C 326.804688 200.234375 328.339844 198.085938 330.078125 196.144531 C 331.816406 194.203125 333.765625 192.460938 335.957031 190.898438 C 338.148438 189.335938 340.085938 188.191406 341.9375 187.425781 C 343.792969 186.660156 345.628906 186.214844 347.480469 186.074219 C 349.332031 185.9375 351.226562 186.101562 352.851562 186.425781 C 354.476562 186.75 358.980469 189.882812 361.863281 193.425781 C 364.75 196.96875 366.164062 200.96875 366.195312 205.722656 C 366.226562 210.476562 364.746094 216.132812 361.699219 222.539062 C 358.65625 228.945312 353.070312 235.222656 346.589844 240.683594 C 340.113281 246.148438 332.878906 250.605469 324.863281 254.074219 C 316.847656 257.542969 308.03125 260.015625 298.375 261.488281 C 288.714844 262.960938 283.484375 263.195312 278.171875 263.207031 C 272.859375 263.222656 267.585938 263 262.355469 262.550781 C 257.125 262.101562 251.933594 261.417969 246.753906 260.5 C 241.574219 259.578125 236.164062 258.515625 228.066406 256.648438 C 219.96875 254.78125 209.15625 252.113281 195.652344 248.636719 C 182.148438 245.164062 165.949219 240.886719 147.054688 235.808594 C 128.15625 230.726562 124.273438 229.808594 120.523438 229 C 116.777344 228.191406 113.082031 227.464844 109.4375 226.847656 C 105.792969 226.234375 102.195312 225.738281 98.578125 225.34375 C 94.964844 224.945312 85.363281 224.566406 76.441406 224.820312 C 67.519531 225.074219 59.300781 225.941406 51.804688 227.441406 C 44.304688 228.941406 37.558594 231.070312 34.613281 232.808594 C 28.757812 235.757812 31.78125 234.8125 28.871094 236.027344 Z M 28.871094 236.027344 " fill-opacity="1" fill-rule="nonzero"/><path fill="#ffffff" d="M 39.050781 217.378906 C 41.453125 216.492188 45.996094 214.375 50.960938 212.785156 C 55.929688 211.195312 61.394531 210.148438 67.410156 209.679688 C 73.425781 209.210938 80.011719 209.304688 84.800781 209.71875 C 89.589844 210.132812 92.398438 210.59375 95.378906 211.183594 C 98.359375 211.773438 101.511719 212.515625 104.839844 213.382812 C 108.167969 214.25 111.671875 215.25 129.785156 221.425781 C 147.898438 227.605469 180.699219 238.925781 184.3125 240.046875 C 187.925781 241.164062 191.429688 242.164062 194.851562 243.0625 C 198.277344 243.960938 201.636719 244.695312 204.917969 245.320312 C 208.199219 245.945312 211.421875 246.464844 218.679688 247.261719 C 225.933594 248.054688 233.515625 248.261719 241.375 247.898438 C 249.238281 247.53125 257.363281 246.554688 263.464844 244.730469 C 269.566406 242.910156 269.566406 242.910156 265.429688 243.367188 C 265.429688 243.367188 256.949219 241.996094 249.09375 242.035156 C 241.234375 242.070312 233.757812 241.683594 226.648438 240.867188 C 219.539062 240.050781 212.714844 238.777344 209.664062 238.121094 C 206.613281 237.460938 203.464844 236.703125 200.230469 235.875 C 196.992188 235.046875 193.660156 234.144531 190.246094 233.140625 C 186.832031 232.136719 183.398438 231.050781 150.597656 219.730469 C 117.796875 208.414062 113.851562 207.351562 110.234375 206.492188 C 106.617188 205.628906 103.160156 204.917969 99.867188 204.359375 C 96.574219 203.800781 93.441406 203.394531 90.414062 203.125 C 87.386719 202.855469 80.054688 202.839844 73.300781 203.464844 C 66.546875 204.089844 60.421875 205.390625 54.949219 207.34375 C 49.476562 209.292969 44.707031 211.914062 42.789062 213.777344 C 38.875 217.144531 41.046875 215.871094 39.050781 217.378906 Z M 39.050781 217.378906 " fill-opacity="1" fill-rule="nonzero"/><g clip-path="url(#493078b582)"><path fill="#ffffff" d="M 49.445312 264.394531 C 51.410156 263.824219 55.070312 262.496094 58.929688 261.769531 C 62.789062 261.042969 66.914062 260.921875 71.359375 261.421875 C 75.804688 261.925781 80.59375 263.0625 83.886719 264.179688 C 87.179688 265.292969 88.945312 266.082031 90.816406 267.03125 C 92.6875 267.976562 94.671875 269.0625 96.765625 270.296875 C 98.859375 271.53125 101.0625 272.910156 106.363281 276.804688 C 111.667969 280.699219 119.425781 286.316406 125.875 290.859375 C 132.324219 295.402344 137.453125 298.898438 141.292969 301.363281 C 145.128906 303.824219 147.765625 305.300781 150.457031 306.617188 C 153.144531 307.929688 157.109375 309.785156 161.128906 311.398438 C 165.152344 313.011719 169.226562 314.378906 173.355469 315.503906 C 177.480469 316.625 181.664062 317.5 187.199219 318.257812 C 192.738281 319.015625 199.183594 319.476562 205.074219 319.417969 C 210.96875 319.359375 216.3125 318.769531 221.113281 317.628906 C 225.917969 316.492188 230.171875 314.777344 233.574219 312.691406 C 236.976562 310.609375 239.457031 308.402344 241.21875 305.890625 C 242.984375 303.378906 243.902344 300.546875 243.824219 297.585938 C 243.746094 294.628906 242.714844 291.761719 241.296875 289.628906 C 239.878906 287.496094 238.753906 286.269531 237.5625 285.144531 C 236.371094 284.023438 235.121094 283 233.804688 282.085938 C 232.488281 281.171875 231.117188 280.363281 229.449219 279.550781 C 227.78125 278.738281 225.921875 277.953125 224.167969 277.355469 C 222.414062 276.761719 220.753906 276.371094 219.175781 276.191406 C 217.601562 276.007812 216.097656 276.054688 213.578125 276.789062 C 211.0625 277.527344 208.152344 278.902344 205.878906 280.578125 C 203.609375 282.25 202.042969 284.296875 201.324219 286.652344 C 200.605469 289.007812 200.816406 291.492188 201.65625 293.542969 C 202.492188 295.597656 203.445312 296.90625 204.542969 297.980469 C 205.644531 299.058594 206.886719 299.871094 208.25 300.417969 C 209.609375 300.960938 211.066406 301.214844 212.585938 301.128906 C 214.105469 301.042969 215.386719 300.582031 216.492188 299.867188 C 217.601562 299.152344 218.507812 298.183594 219.210938 296.996094 C 219.914062 295.804688 220.414062 294.40625 220.828125 293.308594 C 221.242188 292.214844 221.242188 292.214844 220.933594 292.929688 C 220.933594 292.929688 220.214844 294.308594 219.320312 295.351562 C 218.425781 296.394531 217.511719 297.167969 216.574219 297.691406 C 215.640625 298.214844 214.667969 298.511719 213.671875 298.59375 C 212.675781 298.675781 211.582031 298.433594 210.574219 298.019531 C 209.570312 297.601562 208.707031 297.035156 207.953125 296.296875 C 207.203125 295.5625 206.550781 294.640625 206.019531 293.59375 C 205.488281 292.550781 205.140625 290.804688 205.320312 289.453125 C 205.496094 288.097656 206.144531 286.972656 207.386719 285.890625 C 208.632812 284.808594 210.589844 283.792969 213.285156 282.90625 C 215.984375 282.019531 216.46875 282.019531 217.371094 282.109375 C 218.273438 282.195312 219.371094 282.445312 220.652344 282.878906 C 221.933594 283.3125 223.386719 283.9375 225.003906 284.769531 C 226.621094 285.597656 227.707031 286.230469 228.734375 286.9375 C 229.761719 287.648438 230.742188 288.4375 231.679688 289.308594 C 232.617188 290.179688 233.503906 291.148438 234.265625 292.066406 C 235.03125 292.984375 236.003906 294.832031 236.375 296.316406 C 236.746094 297.796875 236.636719 299.066406 236.03125 300.390625 C 235.421875 301.71875 234.164062 303.207031 232.152344 304.785156 C 230.140625 306.363281 227.019531 308.066406 223.304688 309.335938 C 219.585938 310.601562 215.222656 311.4375 210.203125 311.804688 C 205.1875 312.175781 199.523438 312.070312 193.222656 311.46875 C 186.925781 310.871094 183.039062 310.214844 179.160156 309.324219 C 175.28125 308.429688 171.449219 307.308594 167.660156 305.953125 C 163.871094 304.601562 160.128906 303.015625 156.363281 301.164062 C 152.601562 299.3125 151.121094 298.6875 148.421875 297.078125 C 145.722656 295.464844 141.585938 292.742188 136.085938 288.945312 C 130.585938 285.148438 123.738281 280.285156 115.453125 274.441406 C 107.171875 268.59375 104.570312 267.070312 102.230469 265.792969 C 99.890625 264.515625 97.640625 263.398438 95.503906 262.40625 C 93.363281 261.414062 91.3125 260.589844 89.292969 259.863281 C 87.273438 259.140625 81.796875 257.867188 76.660156 257.3125 C 71.523438 256.757812 66.765625 256.917969 62.425781 257.820312 C 58.082031 258.722656 54.207031 260.386719 52.59375 261.730469 C 49.304688 264.175781 51.121094 263.296875 49.445312 264.394531 Z M 49.445312 264.394531 " fill-opacity="1" fill-rule="nonzero"/></g><path fill="#ffffff" d="M 239.648438 283.488281 C 240.8125 284.207031 243.476562 285.09375 246.46875 285.808594 C 249.464844 286.519531 252.769531 287.0625 256.378906 287.453125 C 259.988281 287.847656 263.898438 288.105469 267.351562 288.257812 C 270.808594 288.40625 273.917969 288.425781 277.359375 288.296875 C 280.800781 288.171875 284.574219 287.890625 288.679688 287.445312 C 292.785156 287.003906 297.203125 286.277344 301.851562 285.375 C 306.5 284.472656 311.453125 283.203125 316.511719 281.355469 C 321.566406 279.507812 326.722656 277.097656 331.953125 274.078125 C 337.1875 271.058594 342.429688 267.347656 346.417969 264.335938 C 350.410156 261.320312 350.410156 261.320312 347.605469 263.09375 C 347.605469 263.09375 341.558594 265.914062 335.929688 268.464844 C 330.300781 271.011719 324.984375 273.167969 319.925781 274.851562 C 314.867188 276.53125 310.046875 277.714844 305.398438 278.421875 C 300.75 279.132812 296.121094 279.816406 291.917969 280.515625 C 287.714844 281.214844 283.859375 281.808594 280.347656 282.277344 C 276.839844 282.742188 273.667969 283.058594 270.816406 283.21875 C 267.964844 283.378906 263.925781 283.582031 260.203125 283.675781 C 256.476562 283.765625 253.035156 283.746094 249.867188 283.644531 C 246.699219 283.546875 243.792969 283.367188 242.378906 283.457031 C 239.710938 283.234375 240.902344 283.804688 239.648438 283.488281 Z M 239.648438 283.488281 " fill-opacity="1" fill-rule="nonzero"/><path fill="#ffffff" d="M 46.726562 95.742188 C 48.609375 96.066406 52.484375 96.289062 56.675781 96.824219 C 60.871094 97.363281 65.40625 98.253906 70.308594 99.527344 C 75.207031 100.800781 80.476562 102.453125 83.878906 103.660156 C 87.277344 104.871094 88.644531 105.460938 90.132812 106.140625 C 91.621094 106.820312 93.226562 107.605469 94.9375 108.503906 C 96.648438 109.40625 98.472656 110.410156 103.1875 113.410156 C 107.902344 116.410156 115.011719 120.871094 121.164062 124.539062 C 127.320312 128.207031 132.480469 131.15625 136.667969 133.398438 C 140.851562 135.636719 144.097656 137.183594 147.324219 138.496094 C 150.546875 139.808594 154.472656 141.253906 158.347656 142.453125 C 162.222656 143.65625 166.046875 144.609375 169.820312 145.316406 C 173.59375 146.019531 177.320312 146.476562 183.21875 146.84375 C 189.117188 147.210938 196.800781 146.890625 203.617188 145.363281 C 210.429688 143.839844 216.335938 141.066406 221.234375 137.035156 C 226.132812 133 229.941406 127.773438 232.265625 121.929688 C 234.585938 116.085938 235.234375 110.839844 234.546875 105.949219 C 233.859375 101.058594 231.796875 96.65625 228.449219 92.910156 C 225.101562 89.160156 220.59375 86.089844 216.585938 84.355469 C 212.578125 82.621094 210.089844 82.175781 207.578125 82.097656 C 205.066406 82.019531 202.546875 82.3125 200.046875 82.960938 C 197.542969 83.613281 195.066406 84.609375 192.679688 85.882812 C 190.289062 87.15625 188.125 88.671875 186.3125 90.425781 C 184.5 92.183594 183.074219 94.1875 182.085938 96.40625 C 181.097656 98.628906 180.585938 101.023438 180.679688 103.789062 C 180.773438 106.554688 181.511719 109.207031 182.78125 111.644531 C 184.050781 114.085938 185.820312 116.277344 188.039062 118.203125 C 190.261719 120.128906 192.902344 121.808594 195.84375 123.039062 C 198.785156 124.269531 201.332031 124.773438 203.726562 124.824219 C 206.125 124.871094 208.351562 124.40625 210.328125 123.425781 C 212.308594 122.441406 213.976562 120.984375 215.234375 119.214844 C 216.496094 117.445312 217.289062 115.589844 217.453125 113.683594 C 217.617188 111.78125 217.105469 109.96875 215.996094 108.40625 C 214.890625 106.847656 213.296875 105.539062 211.175781 104.667969 C 209.058594 103.796875 207.105469 103.632812 205.183594 103.816406 C 203.261719 104 201.394531 104.535156 199.609375 105.417969 C 197.820312 106.296875 196.132812 107.53125 194.828125 108.476562 C 193.523438 109.421875 193.523438 109.421875 194.429688 108.851562 C 194.429688 108.851562 196.339844 107.890625 198.21875 107.324219 C 200.097656 106.761719 201.863281 106.441406 203.542969 106.386719 C 205.222656 106.332031 206.832031 106.523438 208.300781 106.9375 C 209.769531 107.351562 211.027344 108.40625 211.910156 109.464844 C 212.792969 110.523438 213.183594 111.445312 213.214844 112.285156 C 213.246094 113.125 212.949219 114.042969 212.21875 115.15625 C 211.492188 116.269531 210.429688 117.359375 209.320312 118.050781 C 208.210938 118.738281 206.96875 119.101562 205.515625 119.164062 C 204.058594 119.226562 202.335938 118.960938 200.421875 118.351562 C 198.511719 117.742188 196.238281 116.363281 194.316406 114.847656 C 192.390625 113.332031 190.9375 111.773438 189.914062 110.179688 C 188.890625 108.585938 188.253906 106.9375 187.972656 105.238281 C 187.695312 103.539062 187.878906 102.152344 188.292969 100.753906 C 188.710938 99.355469 189.386719 98.082031 190.363281 96.875 C 191.34375 95.671875 192.667969 94.527344 194.394531 93.445312 C 196.121094 92.359375 198.109375 91.371094 200.007812 90.695312 C 201.90625 90.019531 203.75 89.628906 205.550781 89.507812 C 207.355469 89.386719 209.132812 89.527344 210.757812 89.878906 C 212.382812 90.226562 216.84375 92.484375 220.085938 95.054688 C 223.328125 97.625 225.433594 100.464844 226.546875 103.652344 C 227.664062 106.835938 227.828125 110.527344 226.988281 114.753906 C 226.152344 118.980469 223.621094 123.898438 220.246094 127.808594 C 216.875 131.722656 212.652344 134.628906 207.472656 136.582031 C 202.292969 138.539062 196.089844 139.507812 188.769531 139.4375 C 181.445312 139.367188 178.0625 139.101562 174.632812 138.605469 C 171.203125 138.109375 167.699219 137.382812 164.128906 136.417969 C 160.558594 135.453125 156.914062 134.253906 153.175781 132.804688 C 149.4375 131.355469 147.121094 130.414062 143.804688 128.753906 C 140.488281 127.097656 136.109375 124.691406 130.699219 121.550781 C 125.292969 118.40625 118.863281 114.535156 111.320312 110.042969 C 103.773438 105.546875 101.609375 104.445312 99.6875 103.527344 C 97.761719 102.613281 95.9375 101.808594 94.21875 101.101562 C 92.5 100.390625 90.882812 99.777344 89.339844 99.269531 C 87.796875 98.761719 82 97.210938 76.558594 96.078125 C 71.113281 94.945312 66.054688 94.253906 61.382812 94.027344 C 56.714844 93.800781 52.453125 94.070312 50.492188 94.65625 C 46.695312 95.484375 48.5625 95.503906 46.726562 95.742188 Z M 46.726562 95.742188 " fill-opacity="1" fill-rule="nonzero"/><path fill="#ffffff" d="M 128.625 203.371094 C 129.015625 203.523438 129.859375 203.742188 130.792969 204.015625 C 131.726562 204.285156 132.753906 204.609375 133.875 204.980469 C 135 205.355469 136.222656 205.777344 139.710938 207.207031 C 143.203125 208.636719 148.660156 210.800781 153.621094 212.65625 C 158.582031 214.511719 163.039062 216.066406 166.980469 217.367188 C 170.925781 218.664062 174.363281 219.699219 177.417969 220.515625 C 180.472656 221.332031 183.398438 222.023438 186.226562 222.621094 C 189.050781 223.222656 191.78125 223.714844 194.410156 224.117188 C 197.035156 224.515625 199.570312 224.789062 202.96875 224.949219 C 206.367188 225.109375 210.515625 225.203125 214.425781 225.167969 C 218.335938 225.132812 222.007812 224.996094 225.441406 224.726562 C 228.875 224.457031 232.070312 224.082031 235.578125 223.535156 C 239.082031 222.988281 243.144531 222.25 247.253906 221.363281 C 251.359375 220.472656 255.503906 219.410156 259.675781 218.144531 C 263.847656 216.875 268.015625 215.316406 271.1875 214.183594 C 274.355469 213.054688 274.355469 213.054688 272.195312 213.625 C 272.195312 213.625 267.738281 214.230469 263.390625 214.820312 C 259.046875 215.40625 254.8125 216.003906 250.664062 216.539062 C 246.515625 217.074219 242.449219 217.519531 238.445312 217.863281 C 234.441406 218.207031 231.511719 218.425781 228.375 218.542969 C 225.238281 218.660156 221.859375 218.664062 218.238281 218.574219 C 214.617188 218.484375 210.75 218.292969 206.644531 218 C 202.539062 217.710938 200.253906 217.46875 197.832031 217.214844 C 195.40625 216.964844 192.863281 216.652344 190.199219 216.25 C 187.535156 215.851562 184.75 215.386719 181.855469 214.832031 C 178.960938 214.28125 175.9375 213.621094 172.355469 212.75 C 168.773438 211.878906 164.625 210.824219 159.925781 209.558594 C 155.222656 208.296875 149.957031 206.867188 144.105469 205.304688 C 138.253906 203.746094 136.808594 203.484375 135.527344 203.304688 C 134.246094 203.121094 133.066406 203.003906 131.992188 202.957031 C 130.914062 202.910156 129.945312 202.933594 129.492188 203.03125 C 128.636719 203.109375 129.027344 203.390625 128.625 203.371094 Z M 128.625 203.371094 " fill-opacity="1" fill-rule="nonzero"/></svg>